<svg id="svg2" width="20" height="50" >
  <path style="fill:#ececec;fill-opacity:1;stroke:#000000;stroke-width:0.40000001;stroke-miterlimit:4;stroke-dasharray:none;stroke-opacity:1" d="m 8.6 46.8 c -1.7 -0.3 -3.4 -1.8 -4.3 -3.6 -0.5 -1 -0.5 -1.3 -0.5 -2.7 0 -1.4 0.1 -1.7 0.4 -2.5 0.2 -0.5 0.9 -1.4 1.4 -1.9 l 0.9 -1 0 -15.8 c 0 -15.3 0 -15.8 0.3 -16.4 0.6 -1.2 1.9 -2 3.3 -2 0.8 -0 1.4 0.3 2.1 0.9 1.1 1 1 -0.1 1 17.2 l 0 15.8 1.1 1.2 c 1.5 1.5 1.9 2.5 1.9 4.6 0 1.3 -0 1.6 -0.5 2.6 -1.3 2.7 -4.1 4.1 -7.2 3.6 z" id="teplomer" inkscape:connector-curvature="0"/>
  <path style="fill:#ff0000;fill-opacity:1;stroke-width:0.1;stroke-miterlimit:4;stroke-dasharray:none" d="M 9 46.7 C 7 46.4 5 44.7 4.1 42.4 l -0.2 -0.4 -0 -1.4 c -0 -1.3 0 -1.4 0.1 -1.8 0.3 -0.9 0.9 -1.7 1.9 -2.8 L 6.7 35.2 6.7 21.6 C 6.7 8 6.7 4 6.8 3.4 6.9 3 7.2 2.6 7.6 2.2 L 7.8 1.9 C 8.4 1.5 9.1 1.2 10 1.2 c 0.9 -0.2 1.6 0.4 2.1 0.7 l 0.3 0.3 c 0.3 0.3 0.4 0.5 0.5 1.2 0.1 1 0.2 3.6 0.2 17.2 l 0 14.2 0.8 0.8 c 1 1 1.1 1.2 1.5 1.7 0.6 0.9 0.7 1.5 0.8 3.1 0 1.1 0 1.2 -0.1 1.6 -0.2 0.9 -0.8 1.9 -1.5 2.6 -1.4 1.5 -3.5 2.2 -5.6 1.9 z" id="vypln" inkscape:connector-curvature="0"/>
  <path style="fill:#800000;fill-opacity:1;stroke-width:0.1;stroke-miterlimit:4;stroke-dasharray:none" d="M 9 46.8 C 7 46.5 4.9 44.7 4.1 42.5 l -0.2 -0.4 -0 -1.4 c -0 -1.3 0 -1.4 0.1 -1.8 0.3 -0.9 1.6 -2.8 2.6 -3.9 l 6.5 0 c 1 1 1.7 1.9 2.1 2.4 0.6 0.9 0.8 1.5 0.8 3.1 0 1.1 0 1.2 -0.1 1.6 -0.2 0.9 -0.8 1.9 -1.5 2.6 -1.4 1.5 -3.5 2.2 -5.6 2 z" id="vypln-3" inkscape:connector-curvature="0"/>
</svg>
