<?xml version="1.0" encoding="UTF-8" standalone="no"?>
<!-- Generator: Adobe Illustrator 16.0.0, SVG Export Plug-In . SVG Version: 6.00 Build 0)  -->

<svg
   xmlns:dc="http://purl.org/dc/elements/1.1/"
   xmlns:cc="http://creativecommons.org/ns#"
   xmlns:rdf="http://www.w3.org/1999/02/22-rdf-syntax-ns#"
   xmlns:svg="http://www.w3.org/2000/svg"
   xmlns="http://www.w3.org/2000/svg"
   xmlns:sodipodi="http://sodipodi.sourceforge.net/DTD/sodipodi-0.dtd"
   xmlns:inkscape="http://www.inkscape.org/namespaces/inkscape"
   version="1.1"
   x="0px"
   y="0px"
   width="739.03601"
   height="608.64703"
   viewBox="0 0 739.03602 608.64704"
   enable-background="new 0 0 3408 1920"
   xml:space="preserve"
   id="svg3"
   inkscape:version="0.48.5 r10040"
   sodipodi:docname="PumpingStation.svg"><metadata
     id="metadata3107"><rdf:RDF><cc:Work
         rdf:about=""><dc:format>image/svg+xml</dc:format><dc:type
           rdf:resource="http://purl.org/dc/dcmitype/StillImage" /><dc:title /></cc:Work></rdf:RDF></metadata><defs
     id="defs3105" /><sodipodi:namedview
     pagecolor="#ffffff"
     bordercolor="#666666"
     borderopacity="1"
     objecttolerance="10"
     gridtolerance="10"
     guidetolerance="10"
     inkscape:pageopacity="0"
     inkscape:pageshadow="2"
     inkscape:window-width="1366"
     inkscape:window-height="745"
     id="namedview3103"
     showgrid="false"
     inkscape:zoom="0.435"
     inkscape:cx="548.36484"
     inkscape:cy="148.32855"
     inkscape:window-x="-8"
     inkscape:window-y="-8"
     inkscape:window-maximized="1"
     inkscape:current-layer="stanica"
     fit-margin-top="0"
     fit-margin-left="0"
     fit-margin-right="0"
     fit-margin-bottom="0" /><g
     id="stanica"
     transform="matrix(0.47240637,0,0,0.47240637,-828.08361,-307.68173)"><g
       transform="matrix(0.90408498,0,0,1.0202449,188.82194,202.75048)"
       id="Layer_2"
       style="fill:#e6e6e6">
	<path
   style="fill:#e6e6e6;stroke:#17321b;stroke-width:7.48165846;stroke-miterlimit:10"
   inkscape:connector-curvature="0"
   id="path3051"
   d="M 2840.9566,1705.814 H 2369.8855 V 964.21524 c 0,0 -0.152,-10.92444 2.9919,-15.62886 3.1438,-4.70442 10.4826,-4.30555 10.4826,-4.30555 l 443.4972,-0.008 c 0,0 4.5656,-0.39088 9.6666,4.48791 4.5116,5.05027 4.4328,13.18111 4.4328,13.18111 V 1705.814 z"
   stroke-miterlimit="10" />
	
</g><g
       transform="matrix(1.2170949,0,0,1.2170949,-382.65639,-142.77151)"
       id="Layer_3">
	
		<rect
   style="fill:#657e7f;stroke:#000000;stroke-width:3.10077691;stroke-miterlimit:10"
   id="rect3056"
   height="54.743584"
   width="136.48207"
   stroke-miterlimit="10"
   y="1548.5519"
   x="2093.2844" />
	
		<rect
   style="fill:#657e7f;stroke:#000000;stroke-width:3.10077691;stroke-miterlimit:10"
   id="rect3058"
   height="54.743584"
   width="136.48053"
   stroke-miterlimit="10"
   y="1548.5519"
   x="1762.1746" />
	
	
		
	
		<rect
   style="fill:#657e7f;stroke:#000000;stroke-width:3.10077691;stroke-miterlimit:10"
   id="rect3064"
   height="61.641399"
   width="31.186371"
   stroke-miterlimit="10"
   y="1545.1029"
   x="2203.2046" />
	
		<rect
   style="fill:#657e7f;stroke:#000000;stroke-width:3.10077691;stroke-miterlimit:10"
   id="rect3066"
   height="61.641399"
   width="31.185595"
   stroke-miterlimit="10"
   y="1545.1029"
   x="1873.1335" />
	
		<rect
   style="fill:#657e7f;stroke:#000000;stroke-width:3.10077691;stroke-miterlimit:10"
   id="rect3068"
   height="61.641399"
   width="31.186371"
   stroke-miterlimit="10"
   y="1545.1029"
   x="2065.4587" />
	
		<rect
   style="fill:#657e7f;stroke:#000000;stroke-width:4;stroke-miterlimit:10"
   id="rect3070"
   height="37.306"
   width="69.171997"
   stroke-miterlimit="10"
   y="2583.5393"
   x="-1605.8782"
   transform="matrix(0.00242449,-0.99999706,0.99999706,0.00242449,0,0)" />
	
		<rect
   style="fill:#657e7f;stroke:#000000;stroke-width:4.05379295;stroke-miterlimit:10"
   id="rect3072"
   height="262.64072"
   width="69.171844"
   stroke-miterlimit="10"
   y="2785.5703"
   x="-1599.0356"
   transform="matrix(0.0012042,-0.99999927,0.99998809,0.00488133,0,0)" />
	
		
	
	
		
	
		
</g><g
       transform="matrix(0.00295083,-1.2170913,1.2170913,0.00295083,1566.0766,5048.5113)"
       id="Layer_4">
	<rect
   style="fill:#010202"
   id="rect3083"
   height="130.672"
   width="77.350998"
   y="1035.51"
   x="2767.53" />
	<circle
   style="fill:#010202"
   sodipodi:ry="100.556"
   sodipodi:rx="100.556"
   sodipodi:cy="1100.853"
   sodipodi:cx="2691.0339"
   d="m 2791.5899,1100.853 c 0,55.5356 -45.0204,100.556 -100.556,100.556 -55.5355,0 -100.556,-45.0204 -100.556,-100.556 0,-55.5355 45.0205,-100.556 100.556,-100.556 55.5356,0 100.556,45.0205 100.556,100.556 z"
   id="circle3085"
   r="100.556"
   cy="1100.853"
   cx="2691.0339" />
	<circle
   style="fill:#333333"
   sodipodi:ry="83.792"
   sodipodi:rx="83.792"
   sodipodi:cy="1100.853"
   sodipodi:cx="2691.0339"
   d="m 2774.8259,1100.853 c 0,46.2771 -37.5149,83.792 -83.792,83.792 -46.277,0 -83.792,-37.5149 -83.792,-83.792 0,-46.277 37.515,-83.792 83.792,-83.792 46.2771,0 83.792,37.515 83.792,83.792 z"
   id="circle3087"
   r="83.792"
   cy="1100.853"
   cx="2691.0339" />
	<circle
   style="fill:#010202"
   sodipodi:ry="29.377001"
   sodipodi:rx="29.377001"
   sodipodi:cy="1100.853"
   sodipodi:cx="2691.0349"
   d="m 2720.4119,1100.853 c 0,16.2245 -13.1525,29.377 -29.377,29.377 -16.2245,0 -29.377,-13.1525 -29.377,-29.377 0,-16.2244 13.1525,-29.377 29.377,-29.377 16.2245,0 29.377,13.1526 29.377,29.377 z"
   id="circle3089"
   r="29.377001"
   cy="1100.853"
   cx="2691.0349" />
</g><g
       transform="matrix(0.00295083,-1.2170913,1.2170913,0.00295083,1566.0766,5048.5113)"
       id="vrtule"><rect
         style="fill:#fecb06"
         id="rect3092"
         height="152.992"
         width="17.273001"
         y="1024.35"
         x="2682.397" /><rect
         style="fill:#ffcc04"
         id="rect3094"
         height="17.273001"
         width="152.992"
         y="1092.209"
         x="2614.5381" /><circle
         style="fill:#fecb06"
         sodipodi:ry="25.292999"
         sodipodi:rx="25.292999"
         sodipodi:cy="1100.8459"
         sodipodi:cx="2691.0339"
         d="m 2716.3269,1100.8459 c 0,13.969 -11.324,25.293 -25.293,25.293 -13.9689,0 -25.293,-11.324 -25.293,-25.293 0,-13.9689 11.3241,-25.293 25.293,-25.293 13.969,0 25.293,11.3241 25.293,25.293 z"
         id="circle3096"
         r="25.292999"
         cy="1100.8459"
         cx="2691.0339" /><circle
         style="fill:#cb9904"
         sodipodi:ry="14.822"
         sodipodi:rx="14.822"
         sodipodi:cy="1100.8459"
         sodipodi:cx="2691.0349"
         d="m 2705.8569,1100.8459 c 0,8.186 -6.636,14.822 -14.822,14.822 -8.186,0 -14.822,-6.636 -14.822,-14.822 0,-8.1859 6.636,-14.822 14.822,-14.822 8.186,0 14.822,6.6361 14.822,14.822 z"
         id="circle3098"
         r="14.822"
         cy="1100.8459"
         cx="2691.0349" /></g><g
       transform="matrix(2.0031821,0,0,2.2089784,1802.0811,1098.2448)"
       id="Layer_6"><path
         style="fill:#cc1417;stroke:#140606;stroke-width:2.72519994;stroke-miterlimit:10;stroke-opacity:1"
         inkscape:connector-curvature="0"
         id="ventil"
         d="m 67.898564,265.90458 1.250464,74.55949 93.784822,-78.861 2.50092,80.29483 z"
         stroke-miterlimit="10"><desc
           id="desc3111">Ak je ventil otvoreny, tak je zeleny, inak cerveny. </desc></path></g><rect
       inkscape:label="#hladina"
       y="1738.7532"
       x="2331.1538"
       height="198.49385"
       width="415.62448"
       id="hladina"
       style="fill:#0000ff;fill-opacity:0.65098039;fill-rule:evenodd;stroke:#2c20c8;stroke-width:3.06912494px;stroke-linecap:butt;stroke-linejoin:miter;stroke-opacity:0.80952382"><desc
         id="desc3119-4">hladina</desc><title
         id="title3117-0">hladina</title></rect><rect
       style="fill:#000000;fill-opacity:1;stroke:#1c1111;stroke-width:0.78168321;stroke-opacity:0.80952382"
       id="rect3809-1"
       width="127.11939"
       height="15.355626"
       x="3095.3391"
       y="1626.0431" /><path
       style="fill:#000000;stroke:#000000;stroke-width:0.78168321px;stroke-linecap:butt;stroke-linejoin:miter;stroke-opacity:1"
       d="m 3221.0915,1604.7815 0,56.6977 41.0063,-35.4361 z"
       id="path3817-7"
       inkscape:connector-curvature="0" /></g><rect
     style="fill:#000000;fill-opacity:1;stroke:#1c1111;stroke-width:0.36927211;stroke-opacity:0.80952382"
     id="rect3809"
     width="60.05201"
     height="7.2540956"
     x="94.17308"
     y="438.75189" /><path
     style="fill:#000000;stroke:#000000;stroke-width:0.36927211px;stroke-linecap:butt;stroke-linejoin:miter;stroke-opacity:1"
     d="m 153.57938,428.70777 0,26.78435 19.37162,-16.74022 z"
     id="path3817"
     inkscape:connector-curvature="0" /></svg>