<?xml version="1.0" encoding="UTF-8" standalone="no"?>
<!-- Generator: Adobe Illustrator 16.0.0, SVG Export Plug-In . SVG Version: 6.00 Build 0)  -->

<svg
   xmlns:dc="http://purl.org/dc/elements/1.1/"
   xmlns:cc="http://creativecommons.org/ns#"
   xmlns:rdf="http://www.w3.org/1999/02/22-rdf-syntax-ns#"
   xmlns:svg="http://www.w3.org/2000/svg"
   xmlns="http://www.w3.org/2000/svg"
   xmlns:sodipodi="http://sodipodi.sourceforge.net/DTD/sodipodi-0.dtd"
   xmlns:inkscape="http://www.inkscape.org/namespaces/inkscape"
   version="1.1"
   x="0px"
   y="0px"
   width="739.03601"
   height="608.64703"
   viewBox="0 0 739.03602 608.64704"
   enable-background="new 0 0 3408 1920"
   xml:space="preserve"
   id="svg3"
   inkscape:version="0.48.5 r10040"
   sodipodi:docname="PumpingStation.svg"><metadata
     id="metadata3107"><rdf:RDF><cc:Work
         rdf:about=""><dc:format>image/svg+xml</dc:format><dc:type
           rdf:resource="http://purl.org/dc/dcmitype/StillImage" /><dc:title /></cc:Work></rdf:RDF></metadata><defs
     id="defs3105" /><sodipodi:namedview
     pagecolor="#ffffff"
     bordercolor="#666666"
     borderopacity="1"
     objecttolerance="10"
     gridtolerance="10"
     guidetolerance="10"
     inkscape:pageopacity="0"
     inkscape:pageshadow="2"
     inkscape:window-width="1366"
     inkscape:window-height="745"
     id="namedview3103"
     showgrid="false"
     inkscape:zoom="0.87"
     inkscape:cx="235.1781"
     inkscape:cy="299.43012"
     inkscape:window-x="-32000"
     inkscape:window-y="-32000"
     inkscape:window-maximized="0"
     inkscape:current-layer="svg3"
     fit-margin-top="0"
     fit-margin-left="0"
     fit-margin-right="0"
     fit-margin-bottom="0" /><g
     id="stanica"
     transform="matrix(0.47240637,0,0,0.47240637,-828.08361,-307.68173)"><g
       transform="matrix(1.2170949,0,0,1.2170949,-382.65639,-142.77151)"
       id="Layer_2">
	<path
   style="fill:#028c4e;stroke:#17321b;stroke-width:10.41569996;stroke-miterlimit:10"
   inkscape:connector-curvature="0"
   id="path3051"
   d="M 3033.223,1705.814 H 2369.886 V 685.104 c 0,0 -0.214,-15.036 4.213,-21.511 4.427,-6.475 14.761,-5.926 14.761,-5.926 l 624.509,-0.011 c 0,0 6.429,-0.538 13.612,6.177 6.353,6.951 6.242,18.142 6.242,18.142 v 1023.839 z"
   stroke-miterlimit="10" />
	<path
   style="fill:#996734;stroke:#2f2011;stroke-width:3.33999991;stroke-miterlimit:10"
   inkscape:connector-curvature="0"
   id="path3053"
   d="m 2823.776,1701.049 h -265.484 v -262.241 c 0,0 -0.085,-3.862 1.687,-5.526 1.771,-1.663 5.907,-1.522 5.907,-1.522 l 249.945,0 c 0,0 2.572,-0.138 5.447,1.587 2.543,1.786 2.498,4.661 2.498,4.661 v 263.044 z"
   stroke-miterlimit="10" />
</g><g
       transform="matrix(1.2170949,0,0,1.2170949,-382.65639,-142.77151)"
       id="Layer_3">
	
		<rect
   style="fill:#657e7f;stroke:#000000;stroke-width:4;stroke-miterlimit:10"
   id="rect3056"
   height="70.839996"
   width="175.513"
   stroke-miterlimit="10"
   y="1520.922"
   x="2188.4231" />
	
		<rect
   style="fill:#657e7f;stroke:#000000;stroke-width:4;stroke-miterlimit:10"
   id="rect3058"
   height="70.839996"
   width="175.511"
   stroke-miterlimit="10"
   y="1520.922"
   x="1762.623" />
	<polygon
   style="fill:#657e7f;stroke:#000000;stroke-width:4;stroke-miterlimit:10"
   id="polygon3060"
   points="2155.296,1591.762 1942.194,1591.762 1942.194,1520.922 2018.333,1520.922 2018.532,1501.938 2072.591,1501.938 2072.356,1520.922 2155.296,1520.922 "
   stroke-miterlimit="10" />
	
		<rect
   style="fill:#657e7f;stroke:#000000;stroke-width:4;stroke-miterlimit:10"
   id="rect3062"
   height="79.765999"
   width="40.105"
   stroke-miterlimit="10"
   y="834.77899"
   x="2748.761" />
	
		<rect
   style="fill:#657e7f;stroke:#000000;stroke-width:4;stroke-miterlimit:10"
   id="rect3064"
   height="79.765999"
   width="40.105"
   stroke-miterlimit="10"
   y="1516.459"
   x="2329.7781" />
	
		<rect
   style="fill:#657e7f;stroke:#000000;stroke-width:4;stroke-miterlimit:10"
   id="rect3066"
   height="79.765999"
   width="40.104"
   stroke-miterlimit="10"
   y="1516.459"
   x="1905.314" />
	
		<rect
   style="fill:#657e7f;stroke:#000000;stroke-width:4;stroke-miterlimit:10"
   id="rect3068"
   height="79.765999"
   width="40.105"
   stroke-miterlimit="10"
   y="1516.459"
   x="2152.6399" />
	
		<rect
   style="fill:#657e7f;stroke:#000000;stroke-width:4;stroke-miterlimit:10"
   id="rect3070"
   height="37.306"
   width="69.171997"
   stroke-miterlimit="10"
   y="972.06799"
   x="2655.5339" />
	
		<rect
   style="fill:#657e7f;stroke:#000000;stroke-width:5.75202799;stroke-miterlimit:10"
   id="rect3072"
   height="528.78601"
   width="69.171997"
   stroke-miterlimit="10"
   y="1176.042"
   x="2655.5339" />
	
		<rect
   style="fill:#657e7f;stroke:#000000;stroke-width:4;stroke-miterlimit:10"
   id="rect3074"
   height="70.839996"
   width="255.119"
   stroke-miterlimit="10"
   y="839.242"
   x="2788.866" />
	<path
   style="fill:#657e7f;stroke:#000000;stroke-width:4;stroke-miterlimit:10"
   inkscape:connector-curvature="0"
   id="path3076"
   d="m 2748.761,907.829 c 0,0 -12.168,-0.104 -18.856,8.258 -6.69,8.362 -5.278,15.876 -5.278,15.876 h -69.088 c 0,0 -1.523,-38.92 24.479,-65.885 26.004,-26.964 68.744,-26.737 68.744,-26.737 v 68.488 z"
   stroke-miterlimit="10" />
	
		<rect
   style="fill:#657e7f;stroke:#000000;stroke-width:4;stroke-miterlimit:10"
   id="rect3078"
   height="40.105"
   width="79.765999"
   stroke-miterlimit="10"
   y="932.67401"
   x="2651.1809" />
	
		<rect
   style="fill:#657e7f;stroke:#000000;stroke-width:4;stroke-miterlimit:10"
   id="rect3080"
   height="40.105"
   width="79.765999"
   stroke-miterlimit="10"
   y="1319.8381"
   x="2648.1887" />
<rect
   style="fill:#657e7f;stroke:#000000;stroke-width:4;stroke-miterlimit:10"
   id="rect3080-1"
   height="40.105"
   width="79.765999"
   stroke-miterlimit="10"
   y="1532.3806"
   x="2648.3352" /></g><g
       transform="matrix(1.2170949,0,0,1.2170949,-382.65639,-142.77151)"
       id="Layer_4">
	<rect
   style="fill:#010202"
   id="rect3083"
   height="130.672"
   width="77.350998"
   y="1035.51"
   x="2767.53" />
	<circle
   style="fill:#010202"
   sodipodi:ry="100.556"
   sodipodi:rx="100.556"
   sodipodi:cy="1100.853"
   sodipodi:cx="2691.0339"
   d="m 2791.5899,1100.853 c 0,55.5356 -45.0204,100.556 -100.556,100.556 -55.5355,0 -100.556,-45.0204 -100.556,-100.556 0,-55.5355 45.0205,-100.556 100.556,-100.556 55.5356,0 100.556,45.0205 100.556,100.556 z"
   id="circle3085"
   r="100.556"
   cy="1100.853"
   cx="2691.0339" />
	<circle
   style="fill:#333333"
   sodipodi:ry="83.792"
   sodipodi:rx="83.792"
   sodipodi:cy="1100.853"
   sodipodi:cx="2691.0339"
   d="m 2774.8259,1100.853 c 0,46.2771 -37.5149,83.792 -83.792,83.792 -46.277,0 -83.792,-37.5149 -83.792,-83.792 0,-46.277 37.515,-83.792 83.792,-83.792 46.2771,0 83.792,37.515 83.792,83.792 z"
   id="circle3087"
   r="83.792"
   cy="1100.853"
   cx="2691.0339" />
	<circle
   style="fill:#010202"
   sodipodi:ry="29.377001"
   sodipodi:rx="29.377001"
   sodipodi:cy="1100.853"
   sodipodi:cx="2691.0349"
   d="m 2720.4119,1100.853 c 0,16.2245 -13.1525,29.377 -29.377,29.377 -16.2245,0 -29.377,-13.1525 -29.377,-29.377 0,-16.2244 13.1525,-29.377 29.377,-29.377 16.2245,0 29.377,13.1526 29.377,29.377 z"
   id="circle3089"
   r="29.377001"
   cy="1100.853"
   cx="2691.0349" />
</g><g
       transform="matrix(1.2170949,0,0,1.2170949,-382.65639,-142.77151)"
       id="vrtule"><rect
         style="fill:#fecb06"
         id="rect3092"
         height="152.992"
         width="17.273001"
         y="1024.35"
         x="2682.397" 
		   <animateTransform id="rectRotateAnimation" attributeType="xml"
                    attributeName="transform"
                    type=""
                    from="0 180 50"
                    to="360 180 50"
                    dur="4s"
                    repeat="indefinite"
                    />
		 /><rect
         style="fill:#ffcc04"
         id="rect3094"
         height="17.273001"
         width="152.992"
         y="1092.209"
         x="2614.5381" 
		   <animateTransform id="rectRotateAnimation2" attributeType="xml"
                    attributeName="transform"
                    type=""
                    from="0 180 50"
                    to="360 180 50"
                    dur="4s"
                    repeat="indefinite"
                    />
		 
		 /><circle
         style="fill:#fecb06"
         sodipodi:ry="25.292999"
         sodipodi:rx="25.292999"
         sodipodi:cy="1100.8459"
         sodipodi:cx="2691.0339"
         d="m 2716.3269,1100.8459 c 0,13.969 -11.324,25.293 -25.293,25.293 -13.9689,0 -25.293,-11.324 -25.293,-25.293 0,-13.9689 11.3241,-25.293 25.293,-25.293 13.969,0 25.293,11.3241 25.293,25.293 z"
         id="circle3096"
         r="25.292999"
         cy="1100.8459"
         cx="2691.0339" /><circle
         style="fill:#cb9904"
         sodipodi:ry="14.822"
         sodipodi:rx="14.822"
         sodipodi:cy="1100.8459"
         sodipodi:cx="2691.0349"
         d="m 2705.8569,1100.8459 c 0,8.186 -6.636,14.822 -14.822,14.822 -8.186,0 -14.822,-6.636 -14.822,-14.822 0,-8.1859 6.636,-14.822 14.822,-14.822 8.186,0 14.822,6.6361 14.822,14.822 z"
         id="circle3098"
         r="14.822"
         cy="1100.8459"
         cx="2691.0349" /></g><g
       transform="matrix(1.2170949,0,0,1.2170949,-382.65639,-142.77151)"
       id="Layer_6"><path
         style="fill:#cc1417;stroke:#140606;stroke-width:2.72519994000000000;stroke-miterlimit:10;stroke-opacity:1"
         inkscape:connector-curvature="0"
         id="ventil"
         d="M 2073.867,1504.246 H 1969.23 v -31.418 c 0,0 0.238,-2.986 2.655,-5.404 2.418,-2.417 6.968,-2.198 6.968,-2.198 h 83.613 l 1.423,8.455 9.978,3.129 v 27.436 z"
         stroke-miterlimit="10"><desc
           id="desc3111">Ak je ventil otvoreny, tak je zeleny, inak cerveny. </desc></path></g><rect
       inkscape:label="#hladina1"
       y="1912.7173"
       x="2507.533"
       height="16.300568"
       width="796.5788"
       id="hladina1"
       style="fill:#0000ff;fill-opacity:0.6507937;fill-rule:evenodd;stroke:#000000;stroke-width:1.21760452px;stroke-linecap:butt;stroke-linejoin:miter;stroke-opacity:1"><desc
         id="desc3119">hladina1</desc><title
         id="title3117">hladina1</title></rect><rect
       inkscape:label="#hladina"
       y="1325.6111"
       x="2507.8459"
       height="600.39648"
       width="797.04492"
       id="hladina"
       style="fill:#0000ff;fill-opacity:0.65098039;fill-rule:evenodd;stroke:#2c20c8;stroke-width:7.39181185px;stroke-linecap:butt;stroke-linejoin:miter;stroke-opacity:0.80952382"><desc
         id="desc3119-4">hladina</desc><title
         id="title3117-0">hladina</title></rect></g></svg>