<?xml version="1.0" encoding="UTF-8" standalone="no"?>
<!-- Created with Inkscape (http://www.inkscape.org/) -->

<svg
   xmlns:dc="http://purl.org/dc/elements/1.1/"
   xmlns:cc="http://creativecommons.org/ns#"
   xmlns:rdf="http://www.w3.org/1999/02/22-rdf-syntax-ns#"
   xmlns:svg="http://www.w3.org/2000/svg"
   xmlns="http://www.w3.org/2000/svg"
   xmlns:sodipodi="http://sodipodi.sourceforge.net/DTD/sodipodi-0.dtd"
   xmlns:inkscape="http://www.inkscape.org/namespaces/inkscape"
   width="640"
   height="400"
   id="svg3102"
   version="1.1"
   inkscape:version="0.48.5 r10040"
   sodipodi:docname="Triple Valve.svg">
  <title
     id="title3055">tripleValve</title>
  <defs
     id="defs3104">
    <inkscape:path-effect
       effect="skeletal"
       id="path-effect3023"
       is_visible="true"
       pattern="M 0,0 0,10 10,5 z"
       copytype="single_stretched"
       prop_scale="1"
       scale_y_rel="false"
       spacing="0"
       normal_offset="0"
       tang_offset="0"
       prop_units="false"
       vertical_pattern="false"
       fuse_tolerance="0" />
    <inkscape:path-effect
       effect="skeletal"
       id="path-effect3015"
       is_visible="true"
       pattern="M 0,0 0,10 10,5 z"
       copytype="single_stretched"
       prop_scale="1"
       scale_y_rel="false"
       spacing="0"
       normal_offset="0"
       tang_offset="0"
       prop_units="false"
       vertical_pattern="false"
       fuse_tolerance="0" />
  </defs>
  <sodipodi:namedview
     id="base"
     pagecolor="#ffffff"
     bordercolor="#666666"
     borderopacity="1.0"
     inkscape:pageopacity="0.0"
     inkscape:pageshadow="2"
     inkscape:zoom="0.7"
     inkscape:cx="168.25187"
     inkscape:cy="13.995174"
     inkscape:document-units="px"
     inkscape:current-layer="g3943"
     showgrid="true"
     inkscape:window-width="1366"
     inkscape:window-height="745"
     inkscape:window-x="-8"
     inkscape:window-y="-8"
     inkscape:window-maximized="1"
     fit-margin-top="0"
     fit-margin-left="0"
     fit-margin-right="0"
     fit-margin-bottom="0"
     showguides="true"
     inkscape:guide-bbox="true">
    <inkscape:grid
       type="xygrid"
       id="grid3029" />
  </sodipodi:namedview>
  <metadata
     id="metadata3107">
    <rdf:RDF>
      <cc:Work
         rdf:about="">
        <dc:format>image/svg+xml</dc:format>
        <dc:type
           rdf:resource="http://purl.org/dc/dcmitype/StillImage" />
        <dc:title>tripleValve</dc:title>
        <dc:creator>
          <cc:Agent>
            <dc:title>chovancova</dc:title>
          </cc:Agent>
        </dc:creator>
      </cc:Work>
    </rdf:RDF>
  </metadata>
  <g
     inkscape:label="Layer 1"
     inkscape:groupmode="layer"
     id="layer1"
     transform="translate(-2.516655,-11.967942)">
    <g
       id="g3943">
      <rect
         transform="matrix(0,-1,1,0,0,0)"
         x="-337.81769"
         y="372.85959"
         stroke-miterlimit="10"
         width="165.98518"
         height="33.599823"
         id="rect3058-5-1-17"
         style="fill:#657e7f;stroke:#000000;stroke-width:2.679;stroke-miterlimit:10;stroke-dasharray:none" />
      <g
         id="Layer_4"
         transform="matrix(0.00108861,-0.47743409,0.44900621,0.00115753,-344.31334,1410.3331)">
        <rect
           x="2767.53"
           y="1035.51"
           width="77.350998"
           height="130.672"
           id="rect3083"
           style="fill:#010202" />
        <circle
           cx="2691.0339"
           cy="1100.853"
           r="100.556"
           id="circle3085"
           d="m 2791.5899,1100.853 c 0,55.5356 -45.0204,100.556 -100.556,100.556 -55.5355,0 -100.556,-45.0204 -100.556,-100.556 0,-55.5355 45.0205,-100.556 100.556,-100.556 55.5356,0 100.556,45.0205 100.556,100.556 z"
           sodipodi:cx="2691.0339"
           sodipodi:cy="1100.853"
           sodipodi:rx="100.556"
           sodipodi:ry="100.556"
           style="fill:#010202" />
        <circle
           cx="2691.0339"
           cy="1100.853"
           r="83.792"
           id="circle3087"
           d="m 2774.8259,1100.853 c 0,46.2771 -37.5149,83.792 -83.792,83.792 -46.277,0 -83.792,-37.5149 -83.792,-83.792 0,-46.277 37.515,-83.792 83.792,-83.792 46.2771,0 83.792,37.515 83.792,83.792 z"
           sodipodi:cx="2691.0339"
           sodipodi:cy="1100.853"
           sodipodi:rx="83.792"
           sodipodi:ry="83.792"
           style="fill:#333333" />
        <circle
           cx="2691.0349"
           cy="1100.853"
           r="29.377001"
           id="circle3089"
           d="m 2720.4119,1100.853 c 0,16.2245 -13.1525,29.377 -29.377,29.377 -16.2245,0 -29.377,-13.1525 -29.377,-29.377 0,-16.2244 13.1525,-29.377 29.377,-29.377 16.2245,0 29.377,13.1526 29.377,29.377 z"
           sodipodi:cx="2691.0349"
           sodipodi:cy="1100.853"
           sodipodi:rx="29.377001"
           sodipodi:ry="29.377001"
           style="fill:#010202" />
      </g>
      <path
         inkscape:connector-curvature="0"
         id="engineMotor1"
         d="m 154.44484,87.947811 0,39.498459 39.5047,0 c -0.17692,-21.73943 -17.76475,-39.323809 -39.5047,-39.498459 z m -40.15487,40.154869 c 0.17465,21.74141 17.76328,39.33005 39.5047,39.50469 l 0,-39.50469 -39.5047,0 z"
         style="fill:#ffff00;fill-opacity:1;stroke:#000000;stroke-width:0.80022138;stroke-linecap:butt;stroke-linejoin:bevel;stroke-miterlimit:4;stroke-opacity:1;stroke-dasharray:none;stroke-dashoffset:0" />
      <g
         id="Layer_4-8"
         transform="matrix(0.00108861,-0.47743409,0.44900621,0.00115753,-341.45619,1647.476)">
        <rect
           x="2767.53"
           y="1035.51"
           width="77.350998"
           height="130.672"
           id="rect3083-2"
           style="fill:#010202" />
        <circle
           cx="2691.0339"
           cy="1100.853"
           r="100.556"
           id="circle3085-4"
           d="m 2791.5899,1100.853 c 0,55.5356 -45.0204,100.556 -100.556,100.556 -55.5355,0 -100.556,-45.0204 -100.556,-100.556 0,-55.5355 45.0205,-100.556 100.556,-100.556 55.5356,0 100.556,45.0205 100.556,100.556 z"
           sodipodi:cx="2691.0339"
           sodipodi:cy="1100.853"
           sodipodi:rx="100.556"
           sodipodi:ry="100.556"
           style="fill:#010202" />
        <circle
           cx="2691.0339"
           cy="1100.853"
           r="83.792"
           id="circle3087-5"
           d="m 2774.8259,1100.853 c 0,46.2771 -37.5149,83.792 -83.792,83.792 -46.277,0 -83.792,-37.5149 -83.792,-83.792 0,-46.277 37.515,-83.792 83.792,-83.792 46.2771,0 83.792,37.515 83.792,83.792 z"
           sodipodi:cx="2691.0339"
           sodipodi:cy="1100.853"
           sodipodi:rx="83.792"
           sodipodi:ry="83.792"
           style="fill:#333333" />
        <circle
           cx="2691.0349"
           cy="1100.853"
           r="29.377001"
           id="circle3089-5"
           d="m 2720.4119,1100.853 c 0,16.2245 -13.1525,29.377 -29.377,29.377 -16.2245,0 -29.377,-13.1525 -29.377,-29.377 0,-16.2244 13.1525,-29.377 29.377,-29.377 16.2245,0 29.377,13.1526 29.377,29.377 z"
           sodipodi:cx="2691.0349"
           sodipodi:cy="1100.853"
           sodipodi:rx="29.377001"
           sodipodi:ry="29.377001"
           style="fill:#010202" />
      </g>
      <path
         inkscape:connector-curvature="0"
         id="engineMotor"
         d="m 157.30198,325.09066 0,39.49847 39.5047,0 c -0.17692,-21.73943 -17.76475,-39.32382 -39.5047,-39.49847 z m -40.15487,40.15488 c 0.17465,21.74141 17.76328,39.33005 39.5047,39.50469 l 0,-39.50469 -39.5047,0 z"
         style="fill:#ffff00;fill-opacity:1;stroke:#000000;stroke-width:0.80022138;stroke-linecap:butt;stroke-linejoin:bevel;stroke-miterlimit:4;stroke-opacity:1;stroke-dasharray:none;stroke-dashoffset:0" />
      <rect
         x="196.88823"
         y="109.41464"
         stroke-miterlimit="10"
         width="167.08685"
         height="33.599823"
         id="rect3056"
         style="fill:#657e7f;stroke:#000000;stroke-width:2.68785453;stroke-miterlimit:10" />
      <rect
         x="198.31277"
         y="350.8432"
         stroke-miterlimit="10"
         width="159.94798"
         height="33.599823"
         id="rect3056-1"
         style="fill:#657e7f;stroke:#000000;stroke-width:2.62980771;stroke-miterlimit:10" />
      <path
         stroke-miterlimit="10"
         d="m 360.73948,350.3172 c 0,0 6.00665,0.0514 9.30813,-4.0765 3.30247,-4.12783 2.60545,-7.83707 2.60545,-7.83707 h 34.10478 c 0,0 0.75181,19.21257 -12.08388,32.52365 -12.83669,13.31057 -33.93497,13.19852 -33.93497,13.19852 v -33.8086 z"
         id="path3076"
         inkscape:connector-curvature="0"
         style="fill:#657e7f;stroke:#000000;stroke-width:1.97457063;stroke-miterlimit:10" />
      <path
         stroke-miterlimit="10"
         d="m 361.859,143.06554 c 0,0 6.18307,-0.0532 9.58152,4.21835 3.39947,4.27148 2.68197,8.1098 2.68197,8.1098 h 35.10647 c 0,0 0.7739,-19.88115 -12.4388,-33.65544 -13.21371,-13.77376 -34.93167,-13.65781 -34.93167,-13.65781 v 34.9851 z"
         id="path3076-6"
         inkscape:connector-curvature="0"
         style="fill:#657e7f;stroke:#000000;stroke-width:2.03791738;stroke-miterlimit:10" />
      <rect
         x="2.516655"
         y="348.4194"
         stroke-miterlimit="10"
         width="111.50555"
         height="33.599823"
         id="rect3058-5-1"
         style="fill:#657e7f;stroke:#000000;stroke-width:2.1957624;stroke-miterlimit:10" />
      <rect
         x="367.51666"
         y="233.36812"
         stroke-miterlimit="10"
         width="275"
         height="33.599823"
         id="rect3058-5-4"
         style="fill:#657e7f;stroke:#000000;stroke-width:2.01541638;stroke-miterlimit:10;stroke-dasharray:none" />
      <rect
         x="337.51666"
         y="348.36813"
         stroke-miterlimit="10"
         width="30.000006"
         height="38.599808"
         id="rect3058-5-1-1"
         style="fill:#657e7f;stroke:#000000;stroke-width:1.22073627;stroke-miterlimit:10" />
      <rect
         x="367.51666"
         y="148.36812"
         stroke-miterlimit="10"
         width="45"
         height="33.599823"
         id="rect3058-5-1-7"
         style="fill:#657e7f;stroke:#000000;stroke-width:1.39490092;stroke-miterlimit:10" />
      <path
         sodipodi:nodetypes="cccccccc"
         inkscape:connector-curvature="0"
         id="path3027"
         d="m 177.38581,39.753569 -54.77055,0.64061 -0.0986,-8.426237 54.77055,-0.640611 -0.0739,-6.319678 25.40191,10.237131 -25.1555,10.828464 z"
         style="fill:#000000;fill-opacity:1;stroke:#000000;stroke-width:0.42134067px;stroke-linecap:butt;stroke-linejoin:miter;stroke-opacity:1" />
      <rect
         x="2.516655"
         y="111.96794"
         stroke-miterlimit="10"
         width="111.50555"
         height="33.599823"
         id="rect3058-5-1-4"
         style="fill:#657e7f;stroke:#000000;stroke-width:2.1957624;stroke-miterlimit:10" />
      <path
         sodipodi:nodetypes="cccccccc"
         inkscape:connector-curvature="0"
         id="path3027-8"
         d="m 178.0753,271.3118 -56.09777,0.65614 -0.10094,-8.63043 56.09778,-0.65612 -0.0757,-6.47283 26.01747,10.48519 -25.7651,11.09088 z"
         style="fill:#000000;fill-opacity:1;stroke:#000000;stroke-width:0.4315508px;stroke-linecap:butt;stroke-linejoin:miter;stroke-opacity:1" />
    </g>
    <g
       id="g3969"
       transform="translate(260,120)">
      <path
         stroke-miterlimit="10"
         d="m 319.55759,81.602662 -83.06352,-0.49726 86.02259,90.862538 -89.47528,0.56086 z"
         id="ventil"
         inkscape:connector-curvature="0"
         style="fill:#cc1417;stroke:#140606;stroke-width:2.80351663;stroke-miterlimit:10;stroke-opacity:1">
        <desc
           id="desc3111">Ak je ventil otvoreny, tak je zeleny, inak cerveny. </desc>
      </path>
    </g>
  </g>
</svg>
