<?xml version="1.0" encoding="UTF-8" standalone="no"?>
<!-- Created with Inkscape (http://www.inkscape.org/) -->

<svg
   xmlns:dc="http://purl.org/dc/elements/1.1/"
   xmlns:cc="http://creativecommons.org/ns#"
   xmlns:rdf="http://www.w3.org/1999/02/22-rdf-syntax-ns#"
   xmlns:svg="http://www.w3.org/2000/svg"
   xmlns="http://www.w3.org/2000/svg"
   xmlns:sodipodi="http://sodipodi.sourceforge.net/DTD/sodipodi-0.dtd"
   xmlns:inkscape="http://www.inkscape.org/namespaces/inkscape"
   width="598.14288"
   height="156"
   id="svg2"
   version="1.1"
   inkscape:version="0.48.5 r10040"
   sodipodi:docname="belt.svg">
  <defs
     id="defs4" />
  <sodipodi:namedview
     id="base"
     pagecolor="#ffffff"
     bordercolor="#666666"
     borderopacity="1.0"
     inkscape:pageopacity="0.0"
     inkscape:pageshadow="2"
     inkscape:zoom="1"
     inkscape:cx="67.598916"
     inkscape:cy="115.96274"
     inkscape:document-units="px"
     inkscape:current-layer="layer1"
     showgrid="false"
     inkscape:window-width="1366"
     inkscape:window-height="745"
     inkscape:window-x="-8"
     inkscape:window-y="-8"
     inkscape:window-maximized="1"
     fit-margin-top="0"
     fit-margin-left="0"
     fit-margin-right="0"
     fit-margin-bottom="0" />
  <metadata
     id="metadata7">
    <rdf:RDF>
      <cc:Work
         rdf:about="">
        <dc:format>image/svg+xml</dc:format>
        <dc:type
           rdf:resource="http://purl.org/dc/dcmitype/StillImage" />
        <dc:title></dc:title>
      </cc:Work>
    </rdf:RDF>
  </metadata>
  <g
     inkscape:label="Layer 1"
     inkscape:groupmode="layer"
     id="layer1"
     transform="translate(-79.928571,-109.86218)">
    <rect
       style="fill:#cccccc;fill-opacity:1;stroke:#1c1111;stroke-opacity:0.80952382"
       id="rect2987"
       width="485.71429"
       height="100"
       x="135.71428"
       y="165.21933" />
    <path
       sodipodi:type="arc"
       style="fill:#cccccc;fill-opacity:1;stroke:#1c1111;stroke-opacity:0.80952382"
       id="path2989"
       sodipodi:cx="74.285713"
       sodipodi:cy="245.21933"
       sodipodi:rx="48.57143"
       sodipodi:ry="50"
       d="m 122.85714,245.21933 c 0,27.61424 -21.74617,50 -48.571427,50 -26.82526,0 -48.57143,-22.38576 -48.57143,-50 0,-27.61424 21.74617,-50 48.57143,-50 26.825257,0 48.571427,22.38576 48.571427,50 z"
       transform="translate(54.714288,-30.428571)" />
    <path
       sodipodi:type="arc"
       style="fill:#cccccc;fill-opacity:1;stroke:#1c1111;stroke-opacity:0.80952382"
       id="path2989-1"
       sodipodi:cx="74.285713"
       sodipodi:cy="245.21933"
       sodipodi:rx="48.57143"
       sodipodi:ry="50"
       d="m 122.85714,245.21933 c 0,27.61424 -21.74617,50 -48.571427,50 -26.82526,0 -48.57143,-22.38576 -48.57143,-50 0,-27.61424 21.74617,-50 48.57143,-50 26.825257,0 48.571427,22.38576 48.571427,50 z"
       transform="translate(554.71429,-29.857147)" />
    <path
       sodipodi:type="arc"
       style="fill:#cccccc;fill-opacity:1;stroke:#1c1111;stroke-opacity:0.80952382"
       id="path2989-7"
       sodipodi:cx="74.285713"
       sodipodi:cy="245.21933"
       sodipodi:rx="48.57143"
       sodipodi:ry="50"
       d="m 122.85714,245.21933 c 0,27.61424 -21.74617,50 -48.571427,50 -26.82526,0 -48.57143,-22.38576 -48.57143,-50 0,-27.61424 21.74617,-50 48.57143,-50 26.825257,0 48.571427,22.38576 48.571427,50 z"
       transform="translate(227.71429,-30.857147)" />
    <path
       sodipodi:type="arc"
       style="fill:#cccccc;fill-opacity:1;stroke:#1c1111;stroke-opacity:0.80952382"
       id="path2989-4"
       sodipodi:cx="74.285713"
       sodipodi:cy="245.21933"
       sodipodi:rx="48.57143"
       sodipodi:ry="50"
       d="m 122.85714,245.21933 c 0,27.61424 -21.74617,50 -48.571427,50 -26.82526,0 -48.57143,-22.38576 -48.57143,-50 0,-27.61424 21.74617,-50 48.57143,-50 26.825257,0 48.571427,22.38576 48.571427,50 z"
       transform="translate(386.71429,-30.857147)" />
    <path
       style="fill:#ffff00;fill-opacity:1;stroke:#000000;stroke-width:1.79377306;stroke-linecap:butt;stroke-linejoin:bevel;stroke-miterlimit:4;stroke-opacity:1;stroke-dasharray:none;stroke-dashoffset:0"
       d="m 129.1259,170.58277 0,43.64998 43.65687,0 c -0.19552,-24.02436 -19.63193,-43.45696 -43.65687,-43.64998 z m -44.375383,44.37539 c 0.193005,24.02656 19.630303,43.46385 43.656863,43.65687 l 0,-43.65687 -43.656863,0 z"
       id="path3034"
       inkscape:connector-curvature="0" />
    <path
       style="fill:#ffff00;fill-opacity:1;stroke:#000000;stroke-width:1.79377306;stroke-linecap:butt;stroke-linejoin:bevel;stroke-miterlimit:4;stroke-opacity:1;stroke-dasharray:none;stroke-dashoffset:0"
       d="m 630.35926,170.34605 0,43.64998 43.65687,0 c -0.19552,-24.02436 -19.63193,-43.45696 -43.65687,-43.64998 z m -44.37539,44.37539 c 0.19301,24.02656 19.63031,43.46385 43.65687,43.65687 l 0,-43.65687 -43.65687,0 z"
       id="path3034-0"
       inkscape:connector-curvature="0" />
    <path
       style="fill:#ffff00;fill-opacity:1;stroke:#000000;stroke-width:1.79377306;stroke-linecap:butt;stroke-linejoin:bevel;stroke-miterlimit:4;stroke-opacity:1;stroke-dasharray:none;stroke-dashoffset:0"
       d="m 460.35926,170.34605 0,43.64998 43.65687,0 c -0.19552,-24.02436 -19.63193,-43.45696 -43.65687,-43.64998 z m -44.37539,44.37539 c 0.19301,24.02656 19.63031,43.46385 43.65687,43.65687 l 0,-43.65687 -43.65687,0 z"
       id="path3034-9"
       inkscape:connector-curvature="0" />
    <path
       style="fill:#ffff00;fill-opacity:1;stroke:#000000;stroke-width:1.79377306;stroke-linecap:butt;stroke-linejoin:bevel;stroke-miterlimit:4;stroke-opacity:1;stroke-dasharray:none;stroke-dashoffset:0"
       d="m 302.35926,170.34605 0,43.64998 43.65687,0 c -0.19552,-24.02436 -19.63193,-43.45696 -43.65687,-43.64998 z m -44.37539,44.37539 c 0.19301,24.02656 19.63031,43.46385 43.65687,43.65687 l 0,-43.65687 -43.65687,0 z"
       id="path3034-4"
       inkscape:connector-curvature="0" />
    <rect
       style="fill:#1a1a1a;fill-opacity:1;stroke:#1c1111;stroke-opacity:0.80952382"
       id="rect3072"
       width="65"
       height="51"
       x="134"
       y="110.36218" />
  </g>
</svg>
