<?xml version="1.0" encoding="UTF-8" standalone="no"?>
<!-- Generator: Adobe Illustrator 16.0.0, SVG Export Plug-In . SVG Version: 6.00 Build 0)  -->

<svg
   xmlns:dc="http://purl.org/dc/elements/1.1/"
   xmlns:cc="http://creativecommons.org/ns#"
   xmlns:rdf="http://www.w3.org/1999/02/22-rdf-syntax-ns#"
   xmlns:svg="http://www.w3.org/2000/svg"
   xmlns="http://www.w3.org/2000/svg"
   xmlns:sodipodi="http://sodipodi.sourceforge.net/DTD/sodipodi-0.dtd"
   xmlns:inkscape="http://www.inkscape.org/namespaces/inkscape"
   version="1.1"
   x="0px"
   y="0px"
   width="739.03601"
   height="608.64703"
   viewBox="0 0 739.03602 608.64704"
   enable-background="new 0 0 3408 1920"
   xml:space="preserve"
   id="svg3"
   inkscape:version="0.48.5 r10040"
   sodipodi:docname="PumpingStationNOVE.svg"><metadata
     id="metadata3107"><rdf:RDF><cc:Work
         rdf:about=""><dc:format>image/svg+xml</dc:format><dc:type
           rdf:resource="http://purl.org/dc/dcmitype/StillImage" /><dc:title /></cc:Work></rdf:RDF></metadata><defs
     id="defs3105" /><sodipodi:namedview
     pagecolor="#ffffff"
     bordercolor="#666666"
     borderopacity="1"
     objecttolerance="10"
     gridtolerance="10"
     guidetolerance="10"
     inkscape:pageopacity="0"
     inkscape:pageshadow="2"
     inkscape:window-width="1366"
     inkscape:window-height="745"
     id="namedview3103"
     showgrid="false"
     inkscape:zoom="0.87"
     inkscape:cx="538.70076"
     inkscape:cy="65.541476"
     inkscape:window-x="-8"
     inkscape:window-y="-8"
     inkscape:window-maximized="1"
     inkscape:current-layer="stanica"
     fit-margin-top="0"
     fit-margin-left="0"
     fit-margin-right="0"
     fit-margin-bottom="0"
     inkscape:object-paths="false"
     inkscape:snap-object-midpoints="true" /><g
     id="stanica"
     transform="matrix(0.47240637,0,0,0.47240637,-828.08361,-307.68173)"><g
       transform="matrix(0.70355256,0,0,0.9348419,666.34342,320.74724)"
       id="Layer_2"
       style="fill:#e6e6e6"><path
         style="fill:#e6e6e6;stroke:#17321b;stroke-width:9;stroke-miterlimit:10"
         inkscape:connector-curvature="0"
         id="path3051"
         d="M 2840.9566,1705.814 H 2369.8855 V 964.21524 c 0,0 -0.152,-10.92444 2.9919,-15.62886 3.1438,-4.70442 10.4826,-4.30555 10.4826,-4.30555 l 443.4972,-0.008 c 0,0 4.5656,-0.39088 9.6666,4.48791 4.5116,5.05027 4.4328,13.18111 4.4328,13.18111 V 1705.814 z"
         stroke-miterlimit="10" /></g><g
       transform="matrix(1.2244629,0,0,1.299236,-395.57904,-283.703)"
       id="Layer_3">
	
		<rect
   style="fill:#657e7f;stroke:#000000;stroke-width:3.37364984;stroke-miterlimit:10"
   id="rect3056"
   height="54.743584"
   width="161.56026"
   stroke-miterlimit="10"
   y="1548.5519"
   x="2068.2063" />
	
		<rect
   style="fill:#657e7f;stroke:#000000;stroke-width:3.23377347;stroke-miterlimit:10"
   id="rect3058"
   height="54.743584"
   width="148.43927"
   stroke-miterlimit="10"
   y="1548.5519"
   x="1756.5901" />
	
	
		
	
		
	
		
	
		
	
		
	
		
	
		
	
	
		
	
		
<rect
   style="fill:#657e7f;stroke:#000000;stroke-width:4.37804222;stroke-miterlimit:10"
   id="rect3056-1"
   height="54.743584"
   width="272.07858"
   stroke-miterlimit="10"
   y="1544.7107"
   x="2503.4573" /><rect
   style="fill:#657e7f;stroke:#000000;stroke-width:2.56672502;stroke-miterlimit:10"
   id="rect3058-8"
   height="54.74358"
   width="93.516525"
   stroke-miterlimit="10"
   y="1546.2279"
   x="2936.405" /></g><g
       transform="matrix(0.00230439,-1.0106428,0.95046604,0.00245029,1763.5216,4464.9398)"
       id="Layer_4">
	<rect
   style="fill:#010202"
   id="rect3083"
   height="130.672"
   width="77.350998"
   y="1035.51"
   x="2767.53" />
	<circle
   style="fill:#010202"
   sodipodi:ry="100.556"
   sodipodi:rx="100.556"
   sodipodi:cy="1100.853"
   sodipodi:cx="2691.0339"
   d="m 2791.5899,1100.853 c 0,55.5356 -45.0204,100.556 -100.556,100.556 -55.5355,0 -100.556,-45.0204 -100.556,-100.556 0,-55.5355 45.0205,-100.556 100.556,-100.556 55.5356,0 100.556,45.0205 100.556,100.556 z"
   id="circle3085"
   r="100.556"
   cy="1100.853"
   cx="2691.0339" />
	<circle
   style="fill:#333333"
   sodipodi:ry="83.792"
   sodipodi:rx="83.792"
   sodipodi:cy="1100.853"
   sodipodi:cx="2691.0339"
   d="m 2774.8259,1100.853 c 0,46.2771 -37.5149,83.792 -83.792,83.792 -46.277,0 -83.792,-37.5149 -83.792,-83.792 0,-46.277 37.515,-83.792 83.792,-83.792 46.2771,0 83.792,37.515 83.792,83.792 z"
   id="circle3087"
   r="83.792"
   cy="1100.853"
   cx="2691.0339" />
	<circle
   style="fill:#010202"
   sodipodi:ry="29.377001"
   sodipodi:rx="29.377001"
   sodipodi:cy="1100.853"
   sodipodi:cx="2691.0349"
   d="m 2720.4119,1100.853 c 0,16.2245 -13.1525,29.377 -29.377,29.377 -16.2245,0 -29.377,-13.1525 -29.377,-29.377 0,-16.2244 13.1525,-29.377 29.377,-29.377 16.2245,0 29.377,13.1526 29.377,29.377 z"
   id="circle3089"
   r="29.377001"
   cy="1100.853"
   cx="2691.0349" />
</g><g
       transform="matrix(2.0110505,0,0,2.3580613,1802.2849,1041.0688)"
       id="Layer_6"><path
         style="fill:#cc1417;stroke:#140606;stroke-width:2.72519994;stroke-miterlimit:10;stroke-opacity:1"
         inkscape:connector-curvature="0"
         id="ventil"
         d="m 67.898564,261.77724 1.250464,78.68683 98.624342,-75.76549 1.29108,77.19932 z"
         stroke-miterlimit="10"><desc
           id="desc3111">Ak je ventil otvoreny, tak je zeleny, inak cerveny. </desc></path></g><rect
       inkscape:label="#hladina"
       y="1883.326"
       x="2339.5425"
       height="22.400272"
       width="317.90259"
       id="hladina"
       style="fill:#0000ff;fill-opacity:0.65098039;fill-rule:evenodd;stroke:#2c20c8;stroke-width:0.90170449px;stroke-linecap:butt;stroke-linejoin:miter;stroke-opacity:0.80952382"><desc
         id="desc3119-4">hladina</desc><title
         id="title3117-0">hladina</title></rect><rect
       style="fill:#000000;fill-opacity:1;stroke:#1c1111;stroke-width:0.80921489;stroke-opacity:0.80952382"
       id="rect3809-1"
       width="127.61871"
       height="16.39197"
       x="2742.7627"
       y="1528.7869" /><path
       style="fill:#000000;stroke:#000000;stroke-width:0.80921489px;stroke-linecap:butt;stroke-linejoin:miter;stroke-opacity:1"
       d="m 2875.8908,1512.9722 0,60.5242 41.1674,-37.8276 z"
       id="path3817-7"
       inkscape:connector-curvature="0" /><g
       transform="matrix(2.0110505,0,0,2.3580614,2863.6993,1041.744)"
       id="Layer_6-7"><path
         style="fill:#cc1417;stroke:#140606;stroke-width:2.72519994;stroke-miterlimit:10;stroke-opacity:1"
         inkscape:connector-curvature="0"
         id="ventil2"
         d="m 67.898564,261.77724 1.250464,78.68683 99.834222,-80.92466 0.0812,82.35849 z"
         stroke-miterlimit="10"
         sodipodi:nodetypes="ccccc"><desc
           id="desc3111-0">Ak je ventil otvoreny, tak je zeleny, inak cerveny. </desc></path></g><rect
       style="fill:#000000;fill-opacity:1;stroke:#1c1111;stroke-width:0.80921483;stroke-opacity:0.80952382"
       id="rect3809-9"
       width="127.61871"
       height="16.391972"
       x="3014.4609"
       y="1562.9659" /><path
       style="fill:#000000;stroke:#000000;stroke-width:0.80921483px;stroke-linecap:butt;stroke-linejoin:miter;stroke-opacity:1"
       d="m 3140.7073,1547.1513 0,60.5242 41.1674,-37.8276 z"
       id="path3817-4"
       inkscape:connector-curvature="0" /><path
       style="fill:#ffff00;fill-opacity:1;stroke:#000000;stroke-width:1.69392598;stroke-linecap:butt;stroke-linejoin:bevel;stroke-miterlimit:4;stroke-opacity:1;stroke-dasharray:none;stroke-dashoffset:0"
       d="m 2819.3037,1665.6862 0,83.6112 83.6244,0 c -0.3745,-46.0185 -37.6048,-83.2415 -83.6244,-83.6112 z m -85.0007,85.0007 c 0.3697,46.0227 37.6017,83.2547 83.6244,83.6244 l 0,-83.6244 -83.6244,0 z"
       id="engineMotor"
       inkscape:connector-curvature="0" /></g><rect
     style="fill:#000000;fill-opacity:1;stroke:#1c1111;stroke-width:0.38227823;stroke-opacity:0.80952382"
     id="rect3809"
     width="60.287891"
     height="7.7436714"
     x="94.547981"
     y="427.10327" /><path
     style="fill:#000000;stroke:#000000;stroke-width:0.38227823px;stroke-linecap:butt;stroke-linejoin:miter;stroke-opacity:1"
     d="m 154.18762,416.3813 0,28.59202 19.44771,-17.87003 z"
     id="path3817"
     inkscape:connector-curvature="0" /></svg>