<?xml version="1.0" encoding="UTF-8" standalone="no"?>
<svg
   xmlns:dc="http://purl.org/dc/elements/1.1/"
   xmlns:cc="http://creativecommons.org/ns#"
   xmlns:rdf="http://www.w3.org/1999/02/22-rdf-syntax-ns#"
   xmlns:svg="http://www.w3.org/2000/svg"
   xmlns="http://www.w3.org/2000/svg"
   xmlns:sodipodi="http://sodipodi.sourceforge.net/DTD/sodipodi-0.dtd"
   xmlns:inkscape="http://www.inkscape.org/namespaces/inkscape"
   id="svg6306"
   height="750.421"
   width="314.61"
   version="1.1"
   inkscape:version="0.48.5 r10040"
   sodipodi:docname="thermometer_o.svg">
  <metadata
     id="metadata63">
    <rdf:RDF>
      <cc:Work
         rdf:about="">
        <dc:format>image/svg+xml</dc:format>
        <dc:type
           rdf:resource="http://purl.org/dc/dcmitype/StillImage" />
      </cc:Work>
    </rdf:RDF>
  </metadata>
  <sodipodi:namedview
     pagecolor="#ffffff"
     bordercolor="#666666"
     borderopacity="1"
     objecttolerance="10"
     gridtolerance="10"
     guidetolerance="10"
     inkscape:pageopacity="0"
     inkscape:pageshadow="2"
     inkscape:window-width="1366"
     inkscape:window-height="745"
     id="namedview61"
     showgrid="false"
     inkscape:zoom="4.12"
     inkscape:cx="171.96457"
     inkscape:cy="63.956283"
     inkscape:window-x="-8"
     inkscape:window-y="-8"
     inkscape:window-maximized="1"
     inkscape:current-layer="g4331" />
  <defs
     id="defs6308">
    <clipPath
       id="clipPath5883"
       clipPathUnits="userSpaceOnUse">
      <path
         id="path5885"
         d="m1285.12 410.268c-9.7188 0-17.5625 7.81243-17.5625 17.5312v102.562c0 .0319-.0002.0619 0 .0937-9.43 5.87376-15.7187 16.3223-15.7187 28.25 0 18.3764 14.9048 33.2812 33.2812 33.2812s33.2812-14.9048 33.2812-33.2812c0-11.9372-6.3073-22.3789-15.75-28.25.0002-.0318 0-.0619 0-.0937v-102.562c0-9.71882-7.8124-17.5312-17.5312-17.5312z"
         stroke="#000"
         stroke-width="3"
         fill="none" />
    </clipPath>
    <filter
       id="filter5845-7"
       color-interpolation-filters="sRGB">
      <feGaussianBlur
         id="feGaussianBlur5847-3"
         stdDeviation="1.1170209" />
    </filter>
    <filter
       id="filter5911-5"
       color-interpolation-filters="sRGB">
      <feGaussianBlur
         id="feGaussianBlur5913-6"
         stdDeviation="2.1597826" />
    </filter>
    <filter
       id="filter5915-7"
       width="1.25475"
       y="-.0178450"
       x="-.127376"
       height="1.03569"
       color-interpolation-filters="sRGB">
      <feGaussianBlur
         id="feGaussianBlur5917-2"
         stdDeviation="0.83954444" />
    </filter>
    <filter
       id="filter5825-4"
       color-interpolation-filters="sRGB">
      <feGaussianBlur
         id="feGaussianBlur5827-1"
         stdDeviation="1.47038" />
    </filter>
    <filter
       id="filter6165"
       width="1.38304"
       y="-.207482"
       x="-.191522"
       height="1.41496"
       color-interpolation-filters="sRGB">
      <feGaussianBlur
         id="feGaussianBlur6167"
         stdDeviation="1.6598004" />
    </filter>
    <filter
       id="filter6999"
       color-interpolation-filters="sRGB">
      <feGaussianBlur
         id="feGaussianBlur7001"
         stdDeviation="10.350888" />
    </filter>
    <linearGradient
       id="linearGradient7035"
       y2="523.949"
       gradientUnits="userSpaceOnUse"
       x2="1287.64"
       y1="489.111"
       x1="1286.95">
      <stop
         id="stop5853-2"
         stop-color="#fff"
         offset="0" />
      <stop
         id="stop5855-8"
         stop-color="#fff"
         stop-opacity="0"
         offset="1" />
    </linearGradient>
    <linearGradient
       id="linearGradient7037"
       y2="480.371"
       gradientUnits="userSpaceOnUse"
       x2="1285.63"
       y1="417.895"
       x1="1285.63">
      <stop
         id="stop5921-9"
         stop-color="#fff"
         offset="0" />
      <stop
         id="stop5923-5"
         stop-color="#fff"
         stop-opacity="0"
         offset="1" />
    </linearGradient>
    <linearGradient
       id="linearGradient7039"
       y2="481.152"
       gradientUnits="userSpaceOnUse"
       x2="1282.17"
       y1="387.639"
       x1="1282.17">
      <stop
         id="stop5929-0"
         stop-opacity=".424779"
         offset="0" />
      <stop
         id="stop5931-5"
         stop-opacity="0"
         offset="1" />
    </linearGradient>
    <clipPath
       id="clipPath5883-8"
       clipPathUnits="userSpaceOnUse">
      <path
         id="path5885-6"
         d="m1285.12 410.268c-9.7188 0-17.5625 7.81243-17.5625 17.5312v102.562c0 .0319-.0002.0619 0 .0937-9.43 5.87376-15.7187 16.3223-15.7187 28.25 0 18.3764 14.9048 33.2812 33.2812 33.2812s33.2812-14.9048 33.2812-33.2812c0-11.9372-6.3073-22.3789-15.75-28.25.0002-.0318 0-.0619 0-.0937v-102.562c0-9.71882-7.8124-17.5312-17.5312-17.5312z"
         stroke="#000"
         stroke-width="3"
         fill="none" />
    </clipPath>
  </defs>
  <g
     id="layer1"
     transform="translate(-260.739 -123.846)">
    <g
       id="g4331"
       transform="translate(20)">
      <g
         id="g6199"
         transform="matrix(3.8355,0,0,3.8226058,-4528.5399,-1415.7286)"
         style="opacity:0.66000001;fill:#ff0000"
         clip-path="url(#clipPath5883)">
        <rect
           id="rect6201"
           transform="scale(-1,-1)"
           height="74.81881"
           width="78.729034"
           y="-593.42102"
           x="-1324.9"
           style="fill:#ff0000" />
      </g>
      <g
         id="g39"
         transform="matrix(1.0910612,0,0,1.0203598,-249.40186,19.452232)"
         style="fill:#000000">
        <g
           id="stupnica"
           style="fill:#000000;stroke:#ffffff;stroke-width:6.14473009"
           transform="translate(195.61279,-27.544485)">
          <path
             id="path6217"
             d="M 350.681,208.483 H 456.787"
             inkscape:connector-curvature="0"
             style="fill:#000000" />
          <path
             id="path6219"
             d="M 350.681,550.099 H 456.787"
             inkscape:connector-curvature="0"
             style="fill:#000000" />
          <path
             id="path6221"
             d="M 350.681,379.291 H 456.787"
             inkscape:connector-curvature="0"
             style="fill:#000000" />
          <path
             id="path6223"
             d="m 350.681,345.129 h 35.3687"
             inkscape:connector-curvature="0"
             style="fill:#000000" />
          <path
             id="path6225"
             d="m 350.681,310.967 h 35.3687"
             inkscape:connector-curvature="0"
             style="fill:#000000" />
          <path
             id="path6227"
             d="m 350.681,276.806 h 35.3687"
             inkscape:connector-curvature="0"
             style="fill:#000000" />
          <path
             id="path6229"
             d="m 350.681,242.644 h 35.3687"
             inkscape:connector-curvature="0"
             style="fill:#000000" />
          <path
             id="path6231"
             d="m 350.681,413.452 h 35.3687"
             inkscape:connector-curvature="0"
             style="fill:#000000" />
          <path
             id="path6233"
             d="m 350.681,447.614 h 35.3687"
             inkscape:connector-curvature="0"
             style="fill:#000000" />
          <path
             id="path6235"
             d="m 350.681,481.775 h 35.3687"
             inkscape:connector-curvature="0"
             style="fill:#000000" />
          <path
             id="path6237"
             d="m 350.681,515.937 h 35.3687"
             inkscape:connector-curvature="0"
             style="fill:#000000" />
        </g>
      </g>
      <g
         id="g55"
         transform="translate(-1.8993757,10.176213)">
        <path
           id="path6241"
           d="m 405.005,144.164 c -37.2764,0 -67.3609,29.9646 -67.3609,67.2411 v 393.378 c 0,0.12235 -7.7e-4,0.23741 0,0.35938 -36.1688,22.5288 -60.289,62.6043 -60.289,108.353 0,70.4828 57.1673,127.65 127.65,127.65 70.4826,0 127.65,-57.1674 127.65,-127.65 0,-45.7853 -24.1916,-85.8342 -60.4091,-108.353 7.7e-4,-0.12197 0,-0.23742 0,-0.35938 v -393.378 c 0,-37.2765 -29.9644,-67.2411 -67.2409,-67.2411 z"
           inkscape:connector-curvature="0"
           style="fill:none;stroke:#000000;stroke-width:11.50650024" />
        <path
           id="path4306"
           d="m 394.265,847.824 c -19.607,-2.87623 -41.1983,-11.0815 -56.4104,-21.4376 -9.90043,-6.73998 -26.9169,-23.4691 -34.0256,-33.451 -27.2843,-38.3121 -31.9069,-88.6167 -12.1,-131.676 9.2691,-20.1507 21.6879,-36.0052 38.4113,-49.0381 l 10.082,-7.85714 0.0114,-200.921 c 0.0111,-196.513 0.0736,-201.12 2.85172,-210 9.71296,-31.0463 36.9999,-51.2219 69.2764,-51.2219 30.5989,0 56.113,17.9465 68.0375,47.8571 l 3.41718,8.57143 0.38558,203.062 0.38557,203.062 7.9043,6.09811 c 18.0312,13.911 35.3204,36.7351 43.2247,57.0626 6.85182,17.6209 8.10428,25.3288 8.0084,49.2857 -0.0824,20.6009 -0.47092,24.0955 -3.9355,35.4026 -13.5253,44.1417 -45.1474,76.6919 -87.4605,90.0276 -19.5645,6.16607 -39.3042,7.92457 -58.064,5.17263 z m 46.9933,-12.7866 c 56.6877,-13.2207 96.3921,-66.8371 92.84,-125.371 -0.46307,-7.63089 -1.91419,-18.0529 -3.22469,-23.1601 -3.19227,-12.4406 -11.9829,-31.1026 -19.8318,-42.1019 -7.12928,-9.99078 -22.9402,-25.1384 -31.1429,-29.8362 l -5.34614,-3.06187 -0.011,-200.095 c -0.008,-138.068 -0.49293,-202.702 -1.56568,-208.505 -4.29509,-23.2342 -22.2319,-42.6382 -44.8169,-48.4827 -29.5397,-7.64422 -59.3517,6.54633 -72.6264,34.5702 l -4.5735,9.65504 -0.3807,206.068 -0.38071,206.068 -6.04786,3.79913 c -9.69097,6.08762 -26.6054,23.2074 -33.9514,34.3635 -13.5491,20.5767 -19.9536,42.2609 -19.9536,67.5577 0,34.9421 12.9554,64.9616 38.2983,88.7422 30.7559,28.86 71.0428,39.5071 112.715,29.7884 z"
           inkscape:connector-curvature="0"
           style="opacity:0.38299997;fill:none;stroke-width:0.1" />
        <rect
           id="empty"
           height="3.5715499"
           width="123.929"
           y="552.83801"
           x="342.88199"
           style="opacity:0.66000001;fill:#ff0000;stroke:#000000;stroke-width:0.0998583" />
      </g>
      <rect
         style="opacity:0"
         id="plny"
         width="124.01025"
         height="367.26111"
         x="341.68073"
         y="195.14098" />
    </g>
  </g>
</svg>
