<svg id="svg6306" xmlns:rdf="http://www.w3.org/1999/02/22-rdf-syntax-ns#" xmlns="http://www.w3.org/2000/svg" height="750.421" width="314.61" version="1.1" xmlns:cc="http://creativecommons.org/ns#" xmlns:xlink="http://www.w3.org/1999/xlink" xmlns:dc="http://purl.org/dc/elements/1.1/">
 <defs id="defs6308">
  <clipPath id="clipPath5883" clipPathUnits="userSpaceOnUse">
   <path id="path5885" d="m1285.12 410.268c-9.7188 0-17.5625 7.81243-17.5625 17.5312v102.562c0 .0319-.0002.0619 0 .0937-9.43 5.87376-15.7187 16.3223-15.7187 28.25 0 18.3764 14.9048 33.2812 33.2812 33.2812s33.2812-14.9048 33.2812-33.2812c0-11.9372-6.3073-22.3789-15.75-28.25.0002-.0318 0-.0619 0-.0937v-102.562c0-9.71882-7.8124-17.5312-17.5312-17.5312z" stroke="#000" stroke-width="3" fill="none"/>
  </clipPath>
  <filter id="filter5845-7" color-interpolation-filters="sRGB">
   <feGaussianBlur id="feGaussianBlur5847-3" stdDeviation="1.1170209"/>
  </filter>
  <filter id="filter5911-5" color-interpolation-filters="sRGB">
   <feGaussianBlur id="feGaussianBlur5913-6" stdDeviation="2.1597826"/>
  </filter>
  <filter id="filter5915-7" width="1.25475" y="-.0178450" x="-.127376" height="1.03569" color-interpolation-filters="sRGB">
   <feGaussianBlur id="feGaussianBlur5917-2" stdDeviation="0.83954444"/>
  </filter>
  <filter id="filter5825-4" color-interpolation-filters="sRGB">
   <feGaussianBlur id="feGaussianBlur5827-1" stdDeviation="1.47038"/>
  </filter>
  <filter id="filter6165" width="1.38304" y="-.207482" x="-.191522" height="1.41496" color-interpolation-filters="sRGB">
   <feGaussianBlur id="feGaussianBlur6167" stdDeviation="1.6598004"/>
  </filter>
  <filter id="filter6999" color-interpolation-filters="sRGB">
   <feGaussianBlur id="feGaussianBlur7001" stdDeviation="10.350888"/>
  </filter>
  <linearGradient id="linearGradient7035" y2="523.949" gradientUnits="userSpaceOnUse" x2="1287.64" y1="489.111" x1="1286.95">
   <stop id="stop5853-2" stop-color="#fff" offset="0"/>
   <stop id="stop5855-8" stop-color="#fff" stop-opacity="0" offset="1"/>
  </linearGradient>
  <linearGradient id="linearGradient7037" y2="480.371" gradientUnits="userSpaceOnUse" x2="1285.63" y1="417.895" x1="1285.63">
   <stop id="stop5921-9" stop-color="#fff" offset="0"/>
   <stop id="stop5923-5" stop-color="#fff" stop-opacity="0" offset="1"/>
  </linearGradient>
  <linearGradient id="linearGradient7039" y2="481.152" gradientUnits="userSpaceOnUse" x2="1282.17" y1="387.639" x1="1282.17">
   <stop id="stop5929-0" stop-opacity=".424779" offset="0"/>
   <stop id="stop5931-5" stop-opacity="0" offset="1"/>
  </linearGradient>
  <clipPath id="clipPath5883-8" clipPathUnits="userSpaceOnUse">
   <path id="path5885-6" d="m1285.12 410.268c-9.7188 0-17.5625 7.81243-17.5625 17.5312v102.562c0 .0319-.0002.0619 0 .0937-9.43 5.87376-15.7187 16.3223-15.7187 28.25 0 18.3764 14.9048 33.2812 33.2812 33.2812s33.2812-14.9048 33.2812-33.2812c0-11.9372-6.3073-22.3789-15.75-28.25.0002-.0318 0-.0619 0-.0937v-102.562c0-9.71882-7.8124-17.5312-17.5312-17.5312z" stroke="#000" stroke-width="3" fill="none"/>
  </clipPath>
 </defs>
 <g id="layer1" transform="translate(-260.739 -123.846)">
  <g id="g4331" transform="translate(20)">
   <path id="path6241-2" d="m407.143 148.157c-37.2764 0-67.3609 29.9646-67.3609 67.2411v393.378c0 .12235-.00076.23742 0 .35939-36.1687 22.5288-60.289 62.6043-60.289 108.353 0 70.4828 57.1673 127.65 127.65 127.65 70.4826 0 127.65-57.1674 127.65-127.65 0-45.7853-24.1916-85.8342-60.4091-108.353.00076-.12197 0-.23742 0-.35939v-393.378c0-37.2765-29.9644-67.2411-67.2409-67.2411z" filter="url(#filter6999)" fill="#808080"/>
   <g id="g6199" transform="matrix(3.8355 0 0 3.8355 -4526.95 -1426.56)" fill="#a00" clip-path="url(#clipPath5883)">
    <rect id="rect6201" transform="scale(-1)" height="76.4547" width="80.3871" y="-593.421" x="-1324.9" fill="#a00"/>
   </g>
   <g id="g6207" transform="matrix(3.8355 0 0 3.8355 -4516.95 -1425.13)">
    <ellipse id="path6209" d="m 1309.6655,500.35251 a 23.182335,19.636801 0 0 1 -23.1823,19.6368 23.182335,19.636801 0 0 1 -23.1824,-19.6368 23.182335,19.636801 0 0 1 23.1824,-19.6368 23.182335,19.636801 0 0 1 23.1823,19.6368 z" rx="23.1823" ry="19.6368" transform="matrix(1.10702 0 0 .751966 -139.164 168.497)" filter="url(#filter5845-7)" cy="500.353" cx="1286.48" fill="url(#linearGradient7035)"/>
    <path id="path6211" opacity=".389381" d="m1280.5 476.531c-.4735.0675-.9398.16145-1.4062.25.4729-.0933.9252-.17913 1.4062-.25zm-1.4062.25c-14.4038 2.73461-25.2813 15.3629-25.2813 30.5625 0 17.1967 13.9283 31.125 31.125 31.125s31.125-13.9283 31.125-31.125c0-15.1996-10.8775-27.8279-25.2813-30.5625 13.2429 2.6131 23.2188 13.8951 23.2188 27.4375 0 15.4771-13.0122 28.0312-29.0625 28.0312s-29.0625-12.5542-29.0625-28.0312c0-13.5424 9.9759-24.8244 23.2188-27.4375zm11.6874 0c-.4664-.0885-.9327-.1825-1.4062-.25.481.0709.9333.15667 1.4062.25z" transform="translate(0 52.3622)" filter="url(#filter5911-5)" fill="#1a1a1a"/>
    <rect id="rect6213" opacity=".566372" ry="7.90927" height="112.912" filter="url(#filter5915-7)" width="15.8185" y="414.245" x="1277.54" fill="url(#linearGradient7037)"/>
    <path id="path6215" d="m1285.12 358c-10.2744 0-18.5625 8.25684-18.5625 18.5312v94.9062c0 10.2744 8.2881 18.5625 18.5625 18.5625s18.5312-8.28809 18.5312-18.5625v-94.9062c.01-10.274-8.25-18.531-18.53-18.531zm-2.1875 1.90625h4.375c4.6781 0 8.4375 3.75942 8.4375 8.4375v103.656c0 4.67808-3.7594 8.4375-8.4375 8.4375h-4.375c-4.6781 0-8.4375-3.75942-8.4375-8.4375v-103.656c0-4.67808 3.7594-8.4375 8.4375-8.4375z" transform="matrix(1 0 0 .895505 0 89.4025)" filter="url(#filter5825-4)" fill="url(#linearGradient7039)"/>
   </g>
   <g fill="#fff">
    <g stroke="#fff" stroke-width="6.14473">
     <path id="path6217" d="m350.681 208.483h106.106"/>
     <path id="path6219" d="m350.681 550.099h106.106"/>
     <path id="path6221" d="m350.681 379.291h106.106"/>
     <path id="path6223" d="m350.681 345.129h35.3687"/>
     <path id="path6225" d="m350.681 310.967h35.3687"/>
     <path id="path6227" d="m350.681 276.806h35.3687"/>
     <path id="path6229" d="m350.681 242.644h35.3687"/>
     <path id="path6231" d="m350.681 413.452h35.3687"/>
     <path id="path6233" d="m350.681 447.614h35.3687"/>
     <path id="path6235" d="m350.681 481.775h35.3687"/>
     <path id="path6237" d="m350.681 515.937h35.3687"/>
    </g>
    <ellipse id="path6239" opacity=".745192" d="m 1290.3574,366.4209 a 10.399657,9.5996838 0 0 1 -10.3996,9.59968 10.399657,9.5996838 0 0 1 -10.3997,-9.59968 10.399657,9.5996838 0 0 1 10.3997,-9.59969 10.399657,9.5996838 0 0 1 10.3996,9.59969 z" rx="10.3997" ry="9.59968" transform="matrix(3.47674 0 0 2.42082 -4042.33 -724.829)" filter="url(#filter6165)" cy="366.421" cx="1279.96"/>
   </g>
   <g>
    <path id="path6241" d="m405.005 144.164c-37.2764 0-67.3609 29.9646-67.3609 67.2411v393.378c0 .12235-.00077.23741 0 .35938-36.1688 22.5288-60.289 62.6043-60.289 108.353 0 70.4828 57.1673 127.65 127.65 127.65 70.4826 0 127.65-57.1674 127.65-127.65 0-45.7853-24.1916-85.8342-60.4091-108.353.00077-.12197 0-.23742 0-.35938v-393.378c0-37.2765-29.9644-67.2411-67.2409-67.2411z" stroke="#000" stroke-width="11.5065" fill="none"/>
    <path id="path4306" opacity="0.383" d="m394.265 847.824c-19.607-2.87623-41.1983-11.0815-56.4104-21.4376-9.90043-6.73998-26.9169-23.4691-34.0256-33.451-27.2843-38.3121-31.9069-88.6167-12.1-131.676 9.2691-20.1507 21.6879-36.0052 38.4113-49.0381l10.082-7.85714.0114-200.921c.0111-196.513.0736-201.12 2.85172-210 9.71296-31.0463 36.9999-51.2219 69.2764-51.2219 30.5989 0 56.113 17.9465 68.0375 47.8571l3.41718 8.57143.38558 203.062.38557 203.062 7.9043 6.09811c18.0312 13.911 35.3204 36.7351 43.2247 57.0626 6.85182 17.6209 8.10428 25.3288 8.0084 49.2857-.0824 20.6009-.47092 24.0955-3.9355 35.4026-13.5253 44.1417-45.1474 76.6919-87.4605 90.0276-19.5645 6.16607-39.3042 7.92457-58.064 5.17263zm46.9933-12.7866c56.6877-13.2207 96.3921-66.8371 92.84-125.371-.46307-7.63089-1.91419-18.0529-3.22469-23.1601-3.19227-12.4406-11.9829-31.1026-19.8318-42.1019-7.12928-9.99078-22.9402-25.1384-31.1429-29.8362l-5.34614-3.06187-.011-200.095c-.008-138.068-.49293-202.702-1.56568-208.505-4.29509-23.2342-22.2319-42.6382-44.8169-48.4827-29.5397-7.64422-59.3517 6.54633-72.6264 34.5702l-4.5735 9.65504-.3807 206.068-.38071 206.068-6.04786 3.79913c-9.69097 6.08762-26.6054 23.2074-33.9514 34.3635-13.5491 20.5767-19.9536 42.2609-19.9536 67.5577 0 34.9421 12.9554 64.9616 38.2983 88.7422 30.7559 28.86 71.0428 39.5071 112.715 29.7884z" stroke-width=".1" fill="none"/>
    <rect id="empty" opacity="0.383" height="3.57155" width="123.929" stroke="#000" y="552.838" x="342.882" stroke-width=".0998583" fill="#ff0003"/>
   </g>
  </g>
  <rect id="full" opacity="0.383" height="350.543" width="123.043" stroke="#000" display="none" y="205.067" x="343.503" stroke-width=".985753" fill="#ff0003"/>
 </g>
</svg>
