<?xml version="1.0" encoding="UTF-8" standalone="no"?>
<!-- Generator: Adobe Illustrator 16.0.0, SVG Export Plug-In . SVG Version: 6.00 Build 0)  -->

<svg
   xmlns:dc="http://purl.org/dc/elements/1.1/"
   xmlns:cc="http://creativecommons.org/ns#"
   xmlns:rdf="http://www.w3.org/1999/02/22-rdf-syntax-ns#"
   xmlns:svg="http://www.w3.org/2000/svg"
   xmlns="http://www.w3.org/2000/svg"
   xmlns:sodipodi="http://sodipodi.sourceforge.net/DTD/sodipodi-0.dtd"
   xmlns:inkscape="http://www.inkscape.org/namespaces/inkscape"
   version="1.1"
   x="0px"
   y="0px"
   width="3408px"
   height="1920px"
   viewBox="0 0 3408 1920"
   enable-background="new 0 0 3408 1920"
   xml:space="preserve"
   id="svg3047"
   inkscape:version="0.48.5 r10040"
   sodipodi:docname="stanica2.svg"><metadata
   id="metadata3107"><rdf:RDF><cc:Work
       rdf:about=""><dc:format>image/svg+xml</dc:format><dc:type
         rdf:resource="http://purl.org/dc/dcmitype/StillImage" /></cc:Work></rdf:RDF></metadata><defs
   id="defs3105" /><sodipodi:namedview
   pagecolor="#ffffff"
   bordercolor="#666666"
   borderopacity="1"
   objecttolerance="10"
   gridtolerance="10"
   guidetolerance="10"
   inkscape:pageopacity="0"
   inkscape:pageshadow="2"
   inkscape:window-width="1366"
   inkscape:window-height="745"
   id="namedview3103"
   showgrid="false"
   inkscape:zoom="0.82201163"
   inkscape:cx="2413.4932"
   inkscape:cy="740.01359"
   inkscape:window-x="-8"
   inkscape:window-y="-8"
   inkscape:window-maximized="1"
   inkscape:current-layer="svg3047" />
<g
   id="Layer_1">
</g>
<g
   id="Layer_2">
	<path
   fill="#028C4E"
   stroke="#17321B"
   stroke-width="10.4157"
   stroke-miterlimit="10"
   d="M3033.223,1705.814h-663.337V685.104   c0,0-0.214-15.036,4.213-21.511s14.761-5.926,14.761-5.926l624.509-0.011c0,0,6.429-0.538,13.612,6.177   c6.353,6.951,6.242,18.142,6.242,18.142V1705.814z"
   id="path3051" />
	<path
   fill="#996734"
   stroke="#2F2011"
   stroke-width="3.34"
   stroke-miterlimit="10"
   d="M2823.776,1701.049h-265.484v-262.241   c0,0-0.085-3.862,1.687-5.526c1.771-1.663,5.907-1.522,5.907-1.522l249.945-0.003c0,0,2.572-0.138,5.447,1.587   c2.543,1.786,2.498,4.661,2.498,4.661V1701.049z"
   id="path3053" />
</g>
<g
   id="Layer_3">
	
		<rect
   x="2188.423"
   y="1520.922"
   fill="#657E7F"
   stroke="#000000"
   stroke-width="4"
   stroke-miterlimit="10"
   width="175.513"
   height="70.84"
   id="rect3056" />
	
		<rect
   x="1762.623"
   y="1520.922"
   fill="#657E7F"
   stroke="#000000"
   stroke-width="4"
   stroke-miterlimit="10"
   width="175.511"
   height="70.84"
   id="rect3058" />
	<polygon
   fill="#657E7F"
   stroke="#000000"
   stroke-width="4"
   stroke-miterlimit="10"
   points="2155.296,1591.762 1942.194,1591.762    1942.194,1520.922 2018.333,1520.922 2018.532,1501.938 2072.591,1501.938 2072.356,1520.922 2155.296,1520.922  "
   id="polygon3060" />
	
		<rect
   x="2748.761"
   y="834.779"
   fill="#657E7F"
   stroke="#000000"
   stroke-width="4"
   stroke-miterlimit="10"
   width="40.105"
   height="79.766"
   id="rect3062" />
	
		<rect
   x="2329.778"
   y="1516.459"
   fill="#657E7F"
   stroke="#000000"
   stroke-width="4"
   stroke-miterlimit="10"
   width="40.105"
   height="79.766"
   id="rect3064" />
	
		<rect
   x="1905.314"
   y="1516.459"
   fill="#657E7F"
   stroke="#000000"
   stroke-width="4"
   stroke-miterlimit="10"
   width="40.104"
   height="79.766"
   id="rect3066" />
	
		<rect
   x="2152.64"
   y="1516.459"
   fill="#657E7F"
   stroke="#000000"
   stroke-width="4"
   stroke-miterlimit="10"
   width="40.105"
   height="79.766"
   id="rect3068" />
	
		<rect
   x="2655.534"
   y="972.068"
   fill="#657E7F"
   stroke="#000000"
   stroke-width="4"
   stroke-miterlimit="10"
   width="69.172"
   height="37.306"
   id="rect3070" />
	
		<rect
   x="2655.534"
   y="1176.042"
   fill="#657E7F"
   stroke="#000000"
   stroke-width="4"
   stroke-miterlimit="10"
   width="69.172"
   height="255.716"
   id="rect3072" />
	
		<rect
   x="2788.866"
   y="839.242"
   fill="#657E7F"
   stroke="#000000"
   stroke-width="4"
   stroke-miterlimit="10"
   width="255.119"
   height="70.84"
   id="rect3074" />
	<path
   fill="#657E7F"
   stroke="#000000"
   stroke-width="4"
   stroke-miterlimit="10"
   d="M2748.761,907.829   c0,0-12.168-0.104-18.856,8.258c-6.69,8.362-5.278,15.876-5.278,15.876h-69.088c0,0-1.523-38.92,24.479-65.885   c26.004-26.964,68.744-26.737,68.744-26.737V907.829z"
   id="path3076" />
	
		<rect
   x="2651.181"
   y="932.674"
   fill="#657E7F"
   stroke="#000000"
   stroke-width="4"
   stroke-miterlimit="10"
   width="79.766"
   height="40.105"
   id="rect3078" />
	
		<rect
   x="2651.181"
   y="1391.652"
   fill="#657E7F"
   stroke="#000000"
   stroke-width="4"
   stroke-miterlimit="10"
   width="79.766"
   height="40.105"
   id="rect3080" />
</g>
<g
   id="Layer_4">
	<rect
   x="2767.53"
   y="1035.51"
   fill="#010202"
   width="77.351"
   height="130.672"
   id="rect3083" />
	<circle
   fill="#010202"
   cx="2691.034"
   cy="1100.853"
   r="100.556"
   id="circle3085" />
	<circle
   fill="#333333"
   cx="2691.034"
   cy="1100.853"
   r="83.792"
   id="circle3087" />
	<circle
   fill="#010202"
   cx="2691.035"
   cy="1100.853"
   r="29.377"
   id="circle3089" />
</g>
<g
   id="vrtule"><desc
   id="desc3123">vrtulky cerpadla motora</desc><title
   id="title3121">vrtule</title>
	<rect
   x="2682.397"
   y="1024.35"
   fill="#FECB06"
   width="17.273"
   height="152.992"
   id="rect3092" />
	<rect
   x="2614.538"
   y="1092.209"
   fill="#FFCC04"
   width="152.992"
   height="17.273"
   id="rect3094" />
	<circle
   fill="#FECB06"
   cx="2691.034"
   cy="1100.846"
   r="25.293"
   id="circle3096" />
	<circle
   fill="#CB9904"
   cx="2691.035"
   cy="1100.846"
   r="14.822"
   id="circle3098" />
</g>
<g
   id="Layer_6">
	<path
   fill="#CC1417"
   stroke="#9A3333"
   stroke-width="2.7252"
   stroke-miterlimit="10"
   d="M2073.867,1504.246H1969.23v-31.418   c0,0,0.238-2.986,2.655-5.404c2.418-2.417,6.968-2.198,6.968-2.198h83.613l1.423,8.455l9.978,3.129V1504.246z"
   id="ventil"><desc
     id="desc3111">ventil</desc><title
     id="title3109">ventil</title></path>
</g>
<rect
   style="fill:#0000ff;fill-rule:evenodd;stroke:#000000;stroke-width:1px;stroke-linecap:butt;stroke-linejoin:miter;stroke-opacity:1"
   id="hladina"
   width="654.49194"
   height="13.381805"
   x="2374.6624"
   y="1688.8597"
   inkscape:label="#hladina"><desc
     id="desc3119">hladina</desc><title
     id="title3117">hladina</title></rect></svg>