<?xml version="1.0" encoding="UTF-8" standalone="no"?>
<!-- Created with Inkscape (http://www.inkscape.org/) -->

<svg
   xmlns:dc="http://purl.org/dc/elements/1.1/"
   xmlns:cc="http://creativecommons.org/ns#"
   xmlns:rdf="http://www.w3.org/1999/02/22-rdf-syntax-ns#"
   xmlns:svg="http://www.w3.org/2000/svg"
   xmlns="http://www.w3.org/2000/svg"
   xmlns:sodipodi="http://sodipodi.sourceforge.net/DTD/sodipodi-0.dtd"
   xmlns:inkscape="http://www.inkscape.org/namespaces/inkscape"
   width="640"
   height="400"
   id="svg3102"
   version="1.1"
   inkscape:version="0.48.5 r10040"
   sodipodi:docname="Triple Valve.svg">
  <title
     id="title3055">tripleValve</title>
  <defs
     id="defs3104" />
  <sodipodi:namedview
     id="base"
     pagecolor="#ffffff"
     bordercolor="#666666"
     borderopacity="1.0"
     inkscape:pageopacity="0.0"
     inkscape:pageshadow="2"
     inkscape:zoom="0.7"
     inkscape:cx="293.27061"
     inkscape:cy="145.43148"
     inkscape:document-units="px"
     inkscape:current-layer="layer1"
     showgrid="false"
     inkscape:window-width="1366"
     inkscape:window-height="745"
     inkscape:window-x="-8"
     inkscape:window-y="-8"
     inkscape:window-maximized="1"
     fit-margin-top="0"
     fit-margin-left="0"
     fit-margin-right="0"
     fit-margin-bottom="0" />
  <metadata
     id="metadata3107">
    <rdf:RDF>
      <cc:Work
         rdf:about="">
        <dc:format>image/svg+xml</dc:format>
        <dc:type
           rdf:resource="http://purl.org/dc/dcmitype/StillImage" />
        <dc:title>tripleValve</dc:title>
        <dc:creator>
          <cc:Agent>
            <dc:title>chovancova</dc:title>
          </cc:Agent>
        </dc:creator>
      </cc:Work>
    </rdf:RDF>
  </metadata>
  <g
     inkscape:label="Layer 1"
     inkscape:groupmode="layer"
     id="layer1"
     transform="translate(-2.516655,-11.967942)">
    <g
       transform="matrix(0.00108861,-0.47743409,0.44900621,0.00115753,-344.31334,1410.3331)"
       id="Layer_4">
      <rect
         style="fill:#010202"
         id="rect3083"
         height="130.672"
         width="77.350998"
         y="1035.51"
         x="2767.53" />
      <circle
         style="fill:#010202"
         sodipodi:ry="100.556"
         sodipodi:rx="100.556"
         sodipodi:cy="1100.853"
         sodipodi:cx="2691.0339"
         d="m 2791.5899,1100.853 c 0,55.5356 -45.0204,100.556 -100.556,100.556 -55.5355,0 -100.556,-45.0204 -100.556,-100.556 0,-55.5355 45.0205,-100.556 100.556,-100.556 55.5356,0 100.556,45.0205 100.556,100.556 z"
         id="circle3085"
         r="100.556"
         cy="1100.853"
         cx="2691.0339" />
      <circle
         style="fill:#333333"
         sodipodi:ry="83.792"
         sodipodi:rx="83.792"
         sodipodi:cy="1100.853"
         sodipodi:cx="2691.0339"
         d="m 2774.8259,1100.853 c 0,46.2771 -37.5149,83.792 -83.792,83.792 -46.277,0 -83.792,-37.5149 -83.792,-83.792 0,-46.277 37.515,-83.792 83.792,-83.792 46.2771,0 83.792,37.515 83.792,83.792 z"
         id="circle3087"
         r="83.792"
         cy="1100.853"
         cx="2691.0339" />
      <circle
         style="fill:#010202"
         sodipodi:ry="29.377001"
         sodipodi:rx="29.377001"
         sodipodi:cy="1100.853"
         sodipodi:cx="2691.0349"
         d="m 2720.4119,1100.853 c 0,16.2245 -13.1525,29.377 -29.377,29.377 -16.2245,0 -29.377,-13.1525 -29.377,-29.377 0,-16.2244 13.1525,-29.377 29.377,-29.377 16.2245,0 29.377,13.1526 29.377,29.377 z"
         id="circle3089"
         r="29.377001"
         cy="1100.853"
         cx="2691.0349" />
    </g>
    <rect
       style="fill:#000000;fill-opacity:1;stroke:#1c1111;stroke-width:0.38227826;stroke-opacity:0.80952382"
       id="rect3809-1"
       width="60.287891"
       height="7.7436709"
       x="118.28639"
       y="23.275679" />
    <path
       style="fill:#000000;stroke:#000000;stroke-width:0.38227826px;stroke-linecap:butt;stroke-linejoin:miter;stroke-opacity:1"
       d="m 181.17695,15.804741 0,28.59202 19.44774,-17.87 z"
       id="path3817-7"
       inkscape:connector-curvature="0" />
    <path
       style="fill:#ffff00;fill-opacity:1;stroke:#000000;stroke-width:0.80022138;stroke-linecap:butt;stroke-linejoin:bevel;stroke-miterlimit:4;stroke-opacity:1;stroke-dasharray:none;stroke-dashoffset:0"
       d="m 154.44484,87.947811 0,39.498459 39.5047,0 c -0.17692,-21.73943 -17.76475,-39.323809 -39.5047,-39.498459 z m -40.15487,40.154869 c 0.17465,21.74141 17.76328,39.33005 39.5047,39.50469 l 0,-39.50469 -39.5047,0 z"
       id="path3069"
       inkscape:connector-curvature="0" />
    <g
       transform="matrix(0.00108861,-0.47743409,0.44900621,0.00115753,-275.7419,1647.476)"
       id="Layer_4-8">
      <rect
         style="fill:#010202"
         id="rect3083-2"
         height="130.672"
         width="77.350998"
         y="1035.51"
         x="2767.53" />
      <circle
         style="fill:#010202"
         sodipodi:ry="100.556"
         sodipodi:rx="100.556"
         sodipodi:cy="1100.853"
         sodipodi:cx="2691.0339"
         d="m 2791.5899,1100.853 c 0,55.5356 -45.0204,100.556 -100.556,100.556 -55.5355,0 -100.556,-45.0204 -100.556,-100.556 0,-55.5355 45.0205,-100.556 100.556,-100.556 55.5356,0 100.556,45.0205 100.556,100.556 z"
         id="circle3085-4"
         r="100.556"
         cy="1100.853"
         cx="2691.0339" />
      <circle
         style="fill:#333333"
         sodipodi:ry="83.792"
         sodipodi:rx="83.792"
         sodipodi:cy="1100.853"
         sodipodi:cx="2691.0339"
         d="m 2774.8259,1100.853 c 0,46.2771 -37.5149,83.792 -83.792,83.792 -46.277,0 -83.792,-37.5149 -83.792,-83.792 0,-46.277 37.515,-83.792 83.792,-83.792 46.2771,0 83.792,37.515 83.792,83.792 z"
         id="circle3087-5"
         r="83.792"
         cy="1100.853"
         cx="2691.0339" />
      <circle
         style="fill:#010202"
         sodipodi:ry="29.377001"
         sodipodi:rx="29.377001"
         sodipodi:cy="1100.853"
         sodipodi:cx="2691.0349"
         d="m 2720.4119,1100.853 c 0,16.2245 -13.1525,29.377 -29.377,29.377 -16.2245,0 -29.377,-13.1525 -29.377,-29.377 0,-16.2244 13.1525,-29.377 29.377,-29.377 16.2245,0 29.377,13.1526 29.377,29.377 z"
         id="circle3089-5"
         r="29.377001"
         cy="1100.853"
         cx="2691.0349" />
    </g>
    <rect
       style="fill:#000000;fill-opacity:1;stroke:#1c1111;stroke-width:0.38227826;stroke-opacity:0.80952382"
       id="rect3809-1-1"
       width="60.287891"
       height="7.7436709"
       x="186.85782"
       y="260.41852" />
    <path
       style="fill:#000000;stroke:#000000;stroke-width:0.38227826px;stroke-linecap:butt;stroke-linejoin:miter;stroke-opacity:1"
       d="m 249.74837,252.9476 0,28.59202 19.44775,-17.87 z"
       id="path3817-7-7"
       inkscape:connector-curvature="0" />
    <path
       style="fill:#ffff00;fill-opacity:1;stroke:#000000;stroke-width:0.80022138;stroke-linecap:butt;stroke-linejoin:bevel;stroke-miterlimit:4;stroke-opacity:1;stroke-dasharray:none;stroke-dashoffset:0"
       d="m 223.01627,325.09066 0,39.49847 39.5047,0 c -0.17692,-21.73943 -17.76475,-39.32382 -39.5047,-39.49847 z m -40.15487,40.15488 c 0.17465,21.74141 17.76328,39.33005 39.5047,39.50469 l 0,-39.50469 -39.5047,0 z"
       id="engineMotor"
       inkscape:connector-curvature="0" />
    <rect
       style="fill:#657e7f;stroke:#000000;stroke-width:2.68785453;stroke-miterlimit:10"
       id="rect3056"
       height="33.599823"
       width="167.08685"
       stroke-miterlimit="10"
       y="109.41464"
       x="196.88823" />
    <rect
       style="fill:#657e7f;stroke:#000000;stroke-width:2.00911641;stroke-miterlimit:10"
       id="rect3058"
       height="36.879433"
       width="85.052826"
       stroke-miterlimit="10"
       y="369.66199"
       x="-248.78438"
       transform="matrix(-0.01799822,-0.99983802,0.99989257,-0.01465779,0,0)"
       inkscape:transform-center-x="125.71429"
       inkscape:transform-center-y="33.518377" />
    <path
       style="fill:#cc1417;stroke:#140606;stroke-width:2.80351663;stroke-miterlimit:10;stroke-opacity:1"
       inkscape:connector-curvature="0"
       id="ventil"
       d="m 435.5933,243.99336 -83.06353,-0.49726 86.02259,90.86255 -89.47528,0.56086 z"
       stroke-miterlimit="10">
      <desc
         id="desc3111">Ak je ventil otvoreny, tak je zeleny, inak cerveny. </desc>
    </path>
    <rect
       style="fill:#657e7f;stroke:#000000;stroke-width:2.01016903;stroke-miterlimit:10"
       id="rect3056-1"
       height="33.599823"
       width="93.453575"
       stroke-miterlimit="10"
       y="350.8432"
       x="264.80719" />
    <rect
       style="fill:#657e7f;stroke:#000000;stroke-width:2.14920616;stroke-miterlimit:10"
       id="rect3058-5"
       height="33.599823"
       width="106.82722"
       stroke-miterlimit="10"
       y="109.41463"
       x="3.591258" />
    <path
       style="fill:#657e7f;stroke:#000000;stroke-width:1.97457063;stroke-miterlimit:10"
       inkscape:connector-curvature="0"
       id="path3076"
       d="m 360.73948,350.3172 c 0,0 6.00665,0.0514 9.30813,-4.0765 3.30247,-4.12783 2.60545,-7.83707 2.60545,-7.83707 h 34.10478 c 0,0 0.75181,19.21257 -12.08388,32.52365 -12.83669,13.31057 -33.93497,13.19852 -33.93497,13.19852 v -33.8086 z"
       stroke-miterlimit="10" />
    <path
       style="fill:#657e7f;stroke:#000000;stroke-width:2.03791738;stroke-miterlimit:10"
       inkscape:connector-curvature="0"
       id="path3076-6"
       d="m 361.859,143.06554 c 0,0 6.18307,-0.0532 9.58152,4.21835 3.39947,4.27148 2.68197,8.1098 2.68197,8.1098 h 35.10647 c 0,0 0.7739,-19.88115 -12.4388,-33.65544 -13.21371,-13.77376 -34.93167,-13.65781 -34.93167,-13.65781 v 34.9851 z"
       stroke-miterlimit="10" />
    <rect
       style="fill:#657e7f;stroke:#000000;stroke-width:2.67899418;stroke-miterlimit:10"
       id="rect3058-5-1"
       height="33.599823"
       width="165.98518"
       stroke-miterlimit="10"
       y="348.4194"
       x="11.232435" />
    <rect
       style="fill:#657e7f;stroke:#000000;stroke-width:3.12386775;stroke-miterlimit:10"
       id="rect3058-5-4"
       height="33.599823"
       width="225.68935"
       stroke-miterlimit="10"
       y="269.84799"
       x="413.48029" />
    <rect
       style="fill:#657e7f;stroke:#000000;stroke-width:1.14028883;stroke-miterlimit:10"
       id="rect3058-5-1-1"
       height="33.599823"
       width="30.071531"
       stroke-miterlimit="10"
       y="349.84799"
       x="342.72168" />
    <rect
       style="fill:#657e7f;stroke:#000000;stroke-width:1.25023723;stroke-miterlimit:10"
       id="rect3058-5-1-7"
       height="33.599823"
       width="36.150196"
       stroke-miterlimit="10"
       y="146.99083"
       x="372.72171" />
    <rect
       style="fill:#000000;fill-opacity:1;stroke:#1c1111;stroke-width:0.38227826;stroke-opacity:0.80952382"
       id="rect3809-1-0"
       width="60.287891"
       height="7.7436709"
       x="483.11655"
       y="228.39426" />
    <path
       style="fill:#000000;stroke:#000000;stroke-width:0.38227826px;stroke-linecap:butt;stroke-linejoin:miter;stroke-opacity:1"
       d="m 546.00712,220.92332 0,28.59202 19.44774,-17.87 z"
       id="path3817-7-9"
       inkscape:connector-curvature="0" />
  </g>
</svg>
